<svg height="480pt" viewBox="0 -64 480.08022 480" width="480pt" xmlns="http://www.w3.org/2000/svg"><path d="m472.039062 176.039062h-10.398437l-62.089844-170.734374c0-.074219-.367187-.664063-.496093-.90625-.296876-.601563-.675782-1.164063-1.117188-1.671876-.21875-.230468-.441406-.429687-.679688-.644531-.488281-.425781-1.027343-.789062-1.601562-1.082031-.257812-.148438-.527344-.277344-.800781-.390625-.894531-.359375-1.851563-.5546875-2.816407-.5703125h-88c-4.417968 0-8 3.5820315-8 7.9999995v32c0 4.417969 3.582032 8 8 8h46.03125l46.554688 128h-313.167969l46.550781-128h46.03125c4.417969 0 8-3.582031 8-8v-32c0-4.417968-3.582031-7.9999995-8-7.9999995h-88c-.964843.015625-1.917968.2109375-2.816406.5703125-.273437.113281-.539062.242187-.796875.390625-.578125.292969-1.117187.65625-1.601562 1.082031-.238281.214844-.464844.414063-.679688.644531-.441406.507813-.820312 1.070313-1.121093 1.671876-.128907.242187-.472657.800781-.496094.90625l-62.085938 170.734374h-10.402344c-2.265624-.011718-4.433593.941407-5.957031 2.621094-1.527343 1.675782-2.269531 3.921875-2.0429685 6.179688l15.9999995 160c.414063 4.101562 3.878907 7.222656 8 7.199218h176c3.863282-.003906 7.171876-2.765624 7.863282-6.566406l16-88c.089844-.472656.136718-.953125.136718-1.433594 0-8.835937 7.164063-16 16-16 8.835938 0 16 7.164063 16 16 .003907.480469.046876.960938.136719 1.433594l16 88c.691407 3.800782 4 6.5625 7.863281 6.566406h176c4.125.023438 7.589844-3.097656 8-7.199218l16-160c.226563-2.257813-.515624-4.503906-2.039062-6.179688-1.527344-1.679687-3.691406-2.632812-5.960938-2.621094zm-85.597656-160 26.175782 72h-30.976563l-26.175781-72zm-74.402344 16v-16h26.402344l5.816406 16zm75.425782 72h30.976562l26.175782 72h-30.976563zm-219.425782-72h-32.214843l5.816406-16h26.398437zm-43.421874-16-26.175782 72h-30.976562l26.175781-72zm-62.976563 88h30.976563l-26.175782 72h-30.976562zm387.199219 232h-162.121094l-14.679688-80.800781c0-17.671875-14.324218-32-32-32-17.671874 0-32 14.328125-32 32l-14.679687 80.800781h-162.078125l-14.402344-144h446.359375zm0 0"/><path d="m184.039062 208.039062h-136c-2.242187-.007812-4.382812.925782-5.902343 2.574219-1.523438 1.648438-2.28125 3.855469-2.097657 6.089844l8 96c.347657 4.15625 3.828126 7.351563 8 7.335937h112c3.910157 0 7.246094-2.828124 7.890626-6.6875l16-96c.382812-2.316406-.269532-4.6875-1.789063-6.480468-1.519531-1.796875-3.75-2.828125-6.101563-2.832032zm-22.773437 96h-97.867187l-6.664063-80h117.859375zm0 0"/><path d="m432.039062 208.039062h-136c-2.347656.003907-4.582031 1.035157-6.097656 2.832032-1.519531 1.792968-2.175781 4.164062-1.789062 6.480468l16 96c.640625 3.859376 3.976562 6.6875 7.886718 6.6875h112c4.171876.015626 7.65625-3.179687 8-7.335937l8-96c.1875-2.234375-.574218-4.441406-2.09375-6.089844-1.519531-1.648437-3.664062-2.582031-5.90625-2.574219zm-15.359374 96h-97.863282l-13.328125-80h117.855469zm0 0"/></svg>