<svg height="480pt" viewBox="0 0 480 480" width="480pt" xmlns="http://www.w3.org/2000/svg"><path d="m455.988281 160h-72v-56c-.066406-57.410156-46.589843-103.9335938-104-104h-80c-57.410156.0664062-103.933593 46.589844-104 104v56h-72c-11.675781-.023438-21.664062 8.378906-23.640625 19.886719-1.980468 11.507812 4.628906 22.761719 15.640625 26.640625v113.472656c.023438 15.886719 9.441407 30.253906 24 36.609375v27.390625c0 4.417969 3.582031 8 8 8h64v80c0 4.417969 3.582031 8 8 8h32c4.417969 0 8-3.582031 8-8v-80h160v80c0 4.417969 3.582031 8 8 8h32c4.417969 0 8-3.582031 8-8v-80h64c4.417969 0 8-3.582031 8-8v-27.390625c14.5625-6.355469 23.980469-20.722656 24-36.609375v-113.472656c11.011719-3.878906 17.621094-15.132813 15.644531-26.640625-1.980468-11.507813-11.96875-19.910157-23.644531-19.886719zm-256-144h80c48.578125.058594 87.945313 39.421875 88 88v57.472656c-9.582031 3.339844-16.007812 12.378906-16.007812 22.527344s6.425781 19.1875 16.007812 22.527344v65.679687c-6.882812-5.292969-15.316406-8.175781-24-8.207031h-208c-8.683593.03125-17.117187 2.914062-24 8.207031v-65.679687c9.585938-3.339844 16.007813-12.378906 16.007813-22.527344s-6.421875-19.1875-16.007813-22.527344v-57.472656c.058594-48.578125 39.421875-87.941406 88-88zm-88 328v-40c0-13.253906 10.746094-24 24-24h208c13.257813 0 24 10.746094 24 24v40zm-88-168h80c4.417969 0 8 3.582031 8 8s-3.582031 8-8 8h-80c-4.417969 0-8-3.582031-8-8s3.582031-8 8-8zm8 144v-112h64v136h-40c-13.253906 0-24-10.746094-24-24zm112 144h-16v-72h16zm208 0h-16v-72h16zm72-88h-368v-16h368zm24-56c0 13.253906-10.742187 24-24 24h-40v-136h64zm8-128h-80c-4.417969 0-8-3.582031-8-8s3.582031-8 8-8h80c4.417969 0 8 3.582031 8 8s-3.582031 8-8 8zm0 0"/><path d="m167.988281 104h16v16c0 4.417969 3.582031 8 8 8s8-3.582031 8-8v-16h16c4.417969 0 8-3.582031 8-8s-3.582031-8-8-8h-16v-16c0-4.417969-3.582031-8-8-8s-8 3.582031-8 8v16h-16c-4.417969 0-8 3.582031-8 8s3.582031 8 8 8zm0 0"/><path d="m167.988281 184h16v16c0 4.417969 3.582031 8 8 8s8-3.582031 8-8v-16h16c4.417969 0 8-3.582031 8-8s-3.582031-8-8-8h-16v-16c0-4.417969-3.582031-8-8-8s-8 3.582031-8 8v16h-16c-4.417969 0-8 3.582031-8 8s3.582031 8 8 8zm0 0"/><path d="m263.988281 104h16v16c0 4.417969 3.582031 8 8 8s8-3.582031 8-8v-16h16c4.417969 0 8-3.582031 8-8s-3.582031-8-8-8h-16v-16c0-4.417969-3.582031-8-8-8s-8 3.582031-8 8v16h-16c-4.417969 0-8 3.582031-8 8s3.582031 8 8 8zm0 0"/><path d="m263.988281 184h16v16c0 4.417969 3.582031 8 8 8s8-3.582031 8-8v-16h16c4.417969 0 8-3.582031 8-8s-3.582031-8-8-8h-16v-16c0-4.417969-3.582031-8-8-8s-8 3.582031-8 8v16h-16c-4.417969 0-8 3.582031-8 8s3.582031 8 8 8zm0 0"/></svg>