<svg height="479pt" viewBox="-127 0 479 479.958" width="479pt" xmlns="http://www.w3.org/2000/svg"><path d="m40.480469 231.957031c-4.417969 0-8 3.582031-8 8v192h-24c-4.417969 0-8 3.582031-8 8v32c0 4.417969 3.582031 8 8 8h208c4.417969 0 8-3.582031 8-8v-32c0-4.417969-3.582031-8-8-8h-24v-192c0-4.417969-3.582031-8-8-8h-48v-64.0625l25.199219 14.945313c2.914062 1.734375 6.605468 1.445312 9.210937-.722656 2.609375-2.167969 3.566406-5.746094 2.386719-8.925782l-18.726563-50.882812 49.929688-44.375c2.484375-2.210938 3.339843-5.734375 2.148437-8.839844-1.191406-3.109375-4.183594-5.152344-7.511718-5.136719h-60.878907l-18.824219-58.453125c-1.078124-3.285156-4.144531-5.503906-7.597656-5.503906-3.457031 0-6.523437 2.21875-7.601562 5.503906l-18.855469 58.453125h-60.878906c-3.324219 0-6.296875 2.050781-7.480469 5.15625-1.179688 3.101563-.320312 6.613281 2.160156 8.820313l49.894532 44.375-18.734376 50.882812c-1.175781 3.175782-.21875 6.75 2.386719 8.917969 2.601563 2.167969 6.292969 2.460937 9.203125.730469l26.570313-15.753906v64.871093zm168 232h-192v-16h192zm-32-32h-128v-184h128zm-92.722657-317.976562-38.246093-34.023438h45.671875c3.472656.003907 6.550781-2.238281 7.617187-5.542969l13-40.359374 13 40.359374c1.0625 3.304688 4.140625 5.546876 7.613281 5.542969h45.664063l-38.253906 34.023438c-2.457031 2.191406-3.324219 5.660156-2.183594 8.746093l12.796875 34.863282-34.558594-20.511719c-2.515625-1.492187-5.644531-1.492187-8.160156 0l-34.601562 20.519531 12.800781-34.871094c1.144531-3.082031.289062-6.550781-2.160157-8.746093zm20.722657 43.617187 7.320312-4.34375 8.679688 5.152344v73.550781h-16zm0 0"/><path d="m64.480469 271.957031v80c0 4.417969 3.582031 8 8 8h80c4.417969 0 8-3.582031 8-8v-80c0-4.417969-3.582031-8-8-8h-80c-4.417969 0-8 3.582031-8 8zm16 8h64v64h-64zm0 0"/><path d="m152.480469 375.957031h-80c-4.417969 0-8 3.582031-8 8s3.582031 8 8 8h80c4.417969 0 8-3.582031 8-8s-3.582031-8-8-8zm0 0"/></svg>