<svg height="480pt" viewBox="-63 0 479 480" width="480pt" xmlns="http://www.w3.org/2000/svg"><path d="m16.5 480h320v-432h16v-48h-352v48h16zm32-16h-16v-416h16zm240 0h-224v-416h224zm32 0h-16v-416h16zm-304-448h320v16h-320zm0 0"/><path d="m112.5 384c-13.253906 0-24 10.746094-24 24v16c0 13.253906 10.746094 24 24 24h128c13.253906 0 24-10.746094 24-24v-16c0-13.253906-10.746094-24-24-24zm136 24v16c0 4.417969-3.582031 8-8 8h-128c-4.417969 0-8-3.582031-8-8v-16c0-4.417969 3.582031-8 8-8h128c4.417969 0 8 3.582031 8 8zm0 0"/><path d="m135.8125 154.398438-6.726562 36.105468c-.566407 2.96875.589843 6.003906 2.988281 7.84375 2.402343 1.839844 5.632812 2.167969 8.355469.851563l36.070312-17.445313 36.070312 17.445313c2.71875 1.3125 5.9375.984375 8.335938-.84375 2.394531-1.832031 3.558594-4.855469 3.007812-7.820313l-6.726562-36.136718 28.648438-25.695313c2.324218-2.082031 3.226562-5.328125 2.308593-8.3125-.921875-2.984375-3.492187-5.160156-6.589843-5.574219l-40.160157-5.367187-17.847656-33.265625c-1.523437-2.421875-4.183594-3.890625-7.046875-3.890625s-5.523438 1.46875-7.046875 3.890625l-17.847656 33.265625-40.160157 5.367187c-3.097656.414063-5.667968 2.589844-6.589843 5.574219-.917969 2.984375-.015625 6.230469 2.308593 8.3125zm21.96875-29.597657c2.546875-.339843 4.777344-1.886719 5.992188-4.152343l12.726562-23.726563 12.726562 23.726563c1.214844 2.265624 3.445313 3.8125 5.992188 4.152343l27.015625 3.605469-19.070313 17.113281c-2.082031 1.863281-3.039062 4.679688-2.527343 7.425781l4.65625 24.957032-25.304688-12.238282c-2.203125-1.066406-4.773437-1.066406-6.976562 0l-25.3125 12.238282 4.65625-24.957032c.511719-2.746093-.445313-5.5625-2.527344-7.425781l-19.070313-17.113281zm0 0"/><path d="m88.5 264c4.417969 0 8-3.582031 8-8v-24c0-4.417969-3.582031-8-8-8s-8 3.582031-8 8v24c0 4.417969 3.582031 8 8 8zm0 0"/></svg>