<svg height="480pt" viewBox="0 -31 480 479" width="480pt" xmlns="http://www.w3.org/2000/svg"><path d="m240 152.5c-44.183594 0-80 35.816406-80 80s35.816406 80 80 80 80-35.816406 80-80c-.046875-44.164062-35.835938-79.953125-80-80zm0 144c-35.347656 0-64-28.652344-64-64s28.652344-64 64-64 64 28.652344 64 64c-.039062 35.328125-28.671875 63.960938-64 64zm0 0"/><path d="m222.34375 214.84375c-9.75 9.75-9.75 25.558594 0 35.308594 9.753906 9.75 25.558594 9.75 35.3125 0 9.75-9.75 9.75-25.558594 0-35.308594-9.757812-9.734375-25.554688-9.734375-35.3125 0zm24 24c-3.503906 3.5-9.179688 3.5-12.679688-.003906-3.503906-3.5-3.503906-9.179688 0-12.679688 3.5-3.503906 9.175782-3.503906 12.679688-.003906 3.496094 3.507812 3.496094 9.179688 0 12.6875zm0 0"/><path d="m40 416.5h400c22.082031-.027344 39.972656-17.917969 40-40v-272c-.035156-30.914062-25.085938-55.964844-56-56v-8c0-20.039062-14.953125-32-40-32h-16c-25.046875 0-40 11.960938-40 32v8h-11.71875l-32-48h-88.5625l-32 48h-107.71875c-30.914062.035156-55.9648438 25.085938-56 56v272c.0273438 22.082031 17.917969 39.972656 40 40zm304-376c0-3.960938 0-16 24-16h16c24 0 24 12.039062 24 16v8h-64zm-139.71875-24h71.4375l21.328125 32h-114.09375zm-188.28125 88c.027344-22.082031 17.917969-39.972656 40-40h368c22.082031.027344 39.972656 17.917969 40 40v120h-112.40625c-4.097656-58.617188-52.84375-104.074219-111.601562-104.074219-58.761719 0-107.503907 45.457031-111.601563 104.074219h-112.390625zm224 224c-53.019531 0-96-42.980469-96-96s42.980469-96 96-96 96 42.980469 96 96c-.058594 52.996094-43.003906 95.941406-96 96zm100.144531-46.144531c2.332031.773437 4.453125 2.074219 6.199219 3.800781l24 24c2.992188 2.605469 4.710938 6.375 4.710938 10.34375s-1.71875 7.738281-4.710938 10.34375c-2.640625 2.929688-6.398438 4.601562-10.34375 4.601562s-7.703125-1.671874-10.34375-4.601562l-24-24c-.382812-.382812-.671875-.800781-1.015625-1.214844 6.117187-7.082031 11.324219-14.898437 15.503906-23.273437zm-211.738281-41.855469c2.9375 42.316406 29.578125 79.320312 68.777344 95.523438 39.199218 16.207031 84.195312 8.816406 116.152344-19.074219.359374.390625.632812.796875 1.007812 1.207031l24 24c5.597656 6.007812 13.441406 9.421875 21.65625 9.421875s16.058594-3.414063 21.65625-9.421875c6.007812-5.597656 9.421875-13.441406 9.421875-21.65625s-3.414063-16.058594-9.421875-21.65625l-24-24c-3.210938-3.234375-7.0625-5.753906-11.3125-7.398438 2.855469-8.730468 4.617188-17.78125 5.25-26.945312h112.40625v136c0 13.253906-10.746094 24-24 24h-400c-13.253906 0-24-10.746094-24-24v-136zm0 0"/><path d="m120 152.5c13.253906 0 24-10.746094 24-24v-16c0-13.253906-10.746094-24-24-24h-64c-13.253906 0-24 10.746094-24 24v16c0 13.253906 10.746094 24 24 24zm-72-24v-16c0-4.417969 3.582031-8 8-8h64c4.417969 0 8 3.582031 8 8v16c0 4.417969-3.582031 8-8 8h-64c-4.417969 0-8-3.582031-8-8zm0 0"/><path d="m64 168.5c-4.417969 0-8 3.582031-8 8v16c0 4.417969 3.582031 8 8 8s8-3.582031 8-8v-16c0-4.417969-3.582031-8-8-8zm0 0"/><path d="m96 168.5c-4.417969 0-8 3.582031-8 8v16c0 4.417969 3.582031 8 8 8s8-3.582031 8-8v-16c0-4.417969-3.582031-8-8-8zm0 0"/><path d="m80 344.5c17.671875 0 32-14.328125 32-32s-14.328125-32-32-32-32 14.328125-32 32 14.328125 32 32 32zm0-48c8.835938 0 16 7.164062 16 16s-7.164062 16-16 16-16-7.164062-16-16 7.164062-16 16-16zm0 0"/><path d="m40 384.5h32c4.417969 0 8-3.582031 8-8s-3.582031-8-8-8h-32c-4.417969 0-8 3.582031-8 8s3.582031 8 8 8zm0 0"/><path d="m96 376.5c0 4.417969 3.582031 8 8 8h336c4.417969 0 8-3.582031 8-8s-3.582031-8-8-8h-336c-4.417969 0-8 3.582031-8 8zm0 0"/><path d="m376 144.5h48c4.417969 0 8-3.582031 8-8v-32c0-4.417969-3.582031-8-8-8h-48c-4.417969 0-8 3.582031-8 8v32c0 4.417969 3.582031 8 8 8zm8-32h32v16h-32zm0 0"/></svg>