<svg height="480pt" viewBox="-80 0 480 480" width="480pt" xmlns="http://www.w3.org/2000/svg"><path d="m120 8c0-4.417969-3.582031-8-8-8h-64c-4.417969 0-8 3.582031-8 8v117.742188l-27.792969 45.25c-.175781.304687-3.367187 8-4.613281 11.695312-.523438 1.496094-1.042969 2.992188-1.503906 4.503906-.296875.984375-.53125 2.007813-.800782 3.007813-3.46875 12.03125-5.2499995 24.480469-5.289062 37v244.800781c0 4.417969 3.582031 8 8 8h144c4.417969 0 8-3.582031 8-8v-244.800781c-.039062-12.507813-1.816406-24.949219-5.28125-36.96875-.277344-1-.511719-2.023438-.796875-3.007813-.464844-1.511718-.984375-3.007812-1.507813-4.503906-1.246093-3.679688-4.4375-11.390625-4.613281-11.695312l-27.800781-45.28125zm-16 8v64h-48v-24h16c4.417969 0 8-3.582031 8-8s-3.582031-8-8-8h-16v-24zm-88 376h24c4.417969 0 8-3.582031 8-8s-3.582031-8-8-8h-24v-16h128v16h-72c-4.417969 0-8 3.582031-8 8s3.582031 8 8 8h72v16h-128zm128-164.800781v116.800781h-128v-116.800781c0-3.351563.238281-6.664063.511719-9.96875l59.914062 29.96875c2.25 1.125 4.898438 1.125 7.148438 0l59.914062-29.960938c.273438 3.265625.511719 6.578125.511719 9.960938zm-128 236.800781v-40h128v40zm117.863281-285.097656c3.042969 6.988281 5.394531 14.257812 7.015625 21.707031l-60.878906 30.445313-60.878906-30.445313c1.621094-7.449219 3.972656-14.71875 7.015625-21.707031l28.6875-46.71875c.769531-1.257813 1.175781-2.707032 1.175781-4.183594v-32h48v32c0 1.476562.40625 2.925781 1.175781 4.183594zm0 0"/><path d="m48 296c0 17.671875 14.328125 32 32 32s32-14.328125 32-32-14.328125-32-32-32-32 14.328125-32 32zm48 0c0 8.835938-7.164062 16-16 16s-16-7.164062-16-16 7.164062-16 16-16 16 7.164062 16 16zm0 0"/><path d="m176 136v128c-.039062 24.519531 12.449219 47.359375 33.113281 60.558594 4.386719 2.90625 6.984375 7.851562 6.886719 13.113281v100.328125l-36.800781 27.601562c-2.753907 2.066407-3.878907 5.660157-2.789063 8.929688 1.089844 3.265625 4.144532 5.46875 7.589844 5.46875h128c3.445312 0 6.5-2.203125 7.589844-5.46875 1.089844-3.269531-.035156-6.863281-2.789063-8.929688l-36.800781-27.601562v-100.328125c-.09375-5.265625 2.507812-10.210937 6.894531-13.121094 20.660157-13.199219 33.144531-36.035156 33.105469-60.550781v-128c0-4.417969-3.582031-8-8-8h-128c-4.417969 0-8 3.582031-8 8zm88 201.671875v94.328125h-32v-94.328125c.042969-8.34375-3.214844-16.363281-9.0625-22.3125 8.074219 2.789063 16.523438 4.351563 25.0625 4.640625 8.539062-.289062 16.988281-1.851562 25.0625-4.640625-5.847656 5.949219-9.105469 13.96875-9.0625 22.3125zm40-73.671875c0 29.601562-44.601562 40-56 40s-56-10.398438-56-40v-64h112zm-96 200 21.328125-16h37.34375l21.328125 16zm96-320v40h-112v-40zm0 0"/><path d="m216 240h8c4.417969 0 8-3.582031 8-8s-3.582031-8-8-8h-8c-4.417969 0-8 3.582031-8 8s3.582031 8 8 8zm0 0"/><path d="m264 232h8c4.417969 0 8-3.582031 8-8s-3.582031-8-8-8h-8c-4.417969 0-8 3.582031-8 8s3.582031 8 8 8zm0 0"/><path d="m248 264h8c4.417969 0 8-3.582031 8-8s-3.582031-8-8-8h-8c-4.417969 0-8 3.582031-8 8s3.582031 8 8 8zm0 0"/><path d="m200 88c0 13.253906 10.746094 24 24 24s24-10.746094 24-24-10.746094-24-24-24-24 10.746094-24 24zm32 0c0 4.417969-3.582031 8-8 8s-8-3.582031-8-8 3.582031-8 8-8 8 3.582031 8 8zm0 0"/><path d="m264 48c13.253906 0 24-10.746094 24-24s-10.746094-24-24-24-24 10.746094-24 24 10.746094 24 24 24zm0-32c4.417969 0 8 3.582031 8 8s-3.582031 8-8 8-8-3.582031-8-8 3.582031-8 8-8zm0 0"/></svg>