<svg height="480pt" viewBox="0 -68 480 480" width="480pt" xmlns="http://www.w3.org/2000/svg"><path d="m472 32h-8v-24c0-4.417969-3.582031-8-8-8h-432c-4.417969 0-8 3.582031-8 8v24h-8c-4.417969 0-8 3.582031-8 8v296c0 4.417969 3.582031 8 8 8h464c4.417969 0 8-3.582031 8-8v-296c0-4.417969-3.582031-8-8-8zm-456 144h448v24h-448zm16-160h416v16h-416zm432 32v16h-48c-4.417969 0-8 3.582031-8 8s3.582031 8 8 8h48v48h-48c-4.417969 0-8 3.582031-8 8s3.582031 8 8 8h48v16h-448v-16h48c4.417969 0 8-3.582031 8-8s-3.582031-8-8-8h-48v-47h48c4.417969 0 8-3.582031 8-8s-3.582031-8-8-8h-48v-17zm-232 280h-64v-80h64zm16 0v-80h64v80zm216 0h-136v-88c0-4.417969-3.582031-8-8-8h-160c-4.417969 0-8 3.582031-8 8v88h-136v-112h448zm0 0"/><path d="m208 296c4.417969 0 8-3.582031 8-8v-8c0-4.417969-3.582031-8-8-8s-8 3.582031-8 8v8c0 4.417969 3.582031 8 8 8zm0 0"/><path d="m272 272c-4.417969 0-8 3.582031-8 8v8c0 4.417969 3.582031 8 8 8s8-3.582031 8-8v-8c0-4.417969-3.582031-8-8-8zm0 0"/><path d="m352 312h88c4.417969 0 8-3.582031 8-8v-64c0-4.417969-3.582031-8-8-8h-88c-4.417969 0-8 3.582031-8 8v64c0 4.417969 3.582031 8 8 8zm8-64h72v48h-72zm0 0"/><path d="m40 312h88c4.417969 0 8-3.582031 8-8v-64c0-4.417969-3.582031-8-8-8h-88c-4.417969 0-8 3.582031-8 8v64c0 4.417969 3.582031 8 8 8zm8-64h72v48h-72zm0 0"/><path d="m96 80h8c4.417969 0 8-3.582031 8-8s-3.582031-8-8-8h-8c-4.417969 0-8 3.582031-8 8s3.582031 8 8 8zm0 0"/><path d="m136 80h8c4.417969 0 8-3.582031 8-8s-3.582031-8-8-8h-8c-4.417969 0-8 3.582031-8 8s3.582031 8 8 8zm0 0"/><path d="m176 80h8c4.417969 0 8-3.582031 8-8s-3.582031-8-8-8h-8c-4.417969 0-8 3.582031-8 8s3.582031 8 8 8zm0 0"/><path d="m216 80h8c4.417969 0 8-3.582031 8-8s-3.582031-8-8-8h-8c-4.417969 0-8 3.582031-8 8s3.582031 8 8 8zm0 0"/><path d="m256 80h8c4.417969 0 8-3.582031 8-8s-3.582031-8-8-8h-8c-4.417969 0-8 3.582031-8 8s3.582031 8 8 8zm0 0"/><path d="m296 80h8c4.417969 0 8-3.582031 8-8s-3.582031-8-8-8h-8c-4.417969 0-8 3.582031-8 8s3.582031 8 8 8zm0 0"/><path d="m336 80h8c4.417969 0 8-3.582031 8-8s-3.582031-8-8-8h-8c-4.417969 0-8 3.582031-8 8s3.582031 8 8 8zm0 0"/><path d="m376 80h8c4.417969 0 8-3.582031 8-8s-3.582031-8-8-8h-8c-4.417969 0-8 3.582031-8 8s3.582031 8 8 8zm0 0"/><path d="m96 144h8c4.417969 0 8-3.582031 8-8s-3.582031-8-8-8h-8c-4.417969 0-8 3.582031-8 8s3.582031 8 8 8zm0 0"/><path d="m136 144h8c4.417969 0 8-3.582031 8-8s-3.582031-8-8-8h-8c-4.417969 0-8 3.582031-8 8s3.582031 8 8 8zm0 0"/><path d="m176 144h8c4.417969 0 8-3.582031 8-8s-3.582031-8-8-8h-8c-4.417969 0-8 3.582031-8 8s3.582031 8 8 8zm0 0"/><path d="m216 144h8c4.417969 0 8-3.582031 8-8s-3.582031-8-8-8h-8c-4.417969 0-8 3.582031-8 8s3.582031 8 8 8zm0 0"/><path d="m256 144h8c4.417969 0 8-3.582031 8-8s-3.582031-8-8-8h-8c-4.417969 0-8 3.582031-8 8s3.582031 8 8 8zm0 0"/><path d="m296 144h8c4.417969 0 8-3.582031 8-8s-3.582031-8-8-8h-8c-4.417969 0-8 3.582031-8 8s3.582031 8 8 8zm0 0"/><path d="m336 144h8c4.417969 0 8-3.582031 8-8s-3.582031-8-8-8h-8c-4.417969 0-8 3.582031-8 8s3.582031 8 8 8zm0 0"/><path d="m376 144h8c4.417969 0 8-3.582031 8-8s-3.582031-8-8-8h-8c-4.417969 0-8 3.582031-8 8s3.582031 8 8 8zm0 0"/></svg>