<svg height="480pt" viewBox="0 -20 480.00263 480" width="480pt" xmlns="http://www.w3.org/2000/svg"><path d="m64 312.003906h96c4.417969 0 8-3.582031 8-8v-80c0-4.417968-3.582031-8-8-8h-96c-4.417969 0-8 3.582032-8 8v80c0 4.417969 3.582031 8 8 8zm8-80h80v64h-80zm0 0"/><path d="m416 216.003906h-96c-4.417969 0-8 3.582032-8 8v80c0 4.417969 3.582031 8 8 8h96c4.417969 0 8-3.582031 8-8v-80c0-4.417968-3.582031-8-8-8zm-8 80h-80v-64h80zm0 0"/><path d="m192 312.003906h96c4.417969 0 8-3.582031 8-8v-80c0-4.417968-3.582031-8-8-8h-96c-4.417969 0-8 3.582032-8 8v80c0 4.417969 3.582031 8 8 8zm8-80h80v64h-80zm0 0"/><path d="m232 248.003906h-8c-4.417969 0-8 3.582032-8 8 0 4.417969 3.582031 8 8 8h8c4.417969 0 8-3.582031 8-8 0-4.417968-3.582031-8-8-8zm0 0"/><path d="m104 248.003906h-8c-4.417969 0-8 3.582032-8 8 0 4.417969 3.582031 8 8 8h8c4.417969 0 8-3.582031 8-8 0-4.417968-3.582031-8-8-8zm0 0"/><path d="m352 264.003906h8c4.417969 0 8-3.582031 8-8 0-4.417968-3.582031-8-8-8h-8c-4.417969 0-8 3.582032-8 8 0 4.417969 3.582031 8 8 8zm0 0"/><path d="m64 344.003906h56c4.417969 0 8-3.582031 8-8 0-4.417968-3.582031-8-8-8h-56c-4.417969 0-8 3.582032-8 8 0 4.417969 3.582031 8 8 8zm0 0"/><path d="m64 376.003906h56c4.417969 0 8-3.582031 8-8 0-4.417968-3.582031-8-8-8h-56c-4.417969 0-8 3.582032-8 8 0 4.417969 3.582031 8 8 8zm0 0"/><path d="m416 392.003906h-352c-4.417969 0-8 3.582032-8 8 0 4.417969 3.582031 8 8 8h352c4.417969 0 8-3.582031 8-8 0-4.417968-3.582031-8-8-8zm0 0"/><path d="m416 360.003906h-72c-4.417969 0-8 3.582032-8 8 0 4.417969 3.582031 8 8 8h72c4.417969 0 8-3.582031 8-8 0-4.417968-3.582031-8-8-8zm0 0"/><path d="m280 368.003906c0 4.417969 3.582031 8 8 8h24c4.417969 0 8-3.582031 8-8 0-4.417968-3.582031-8-8-8h-24c-4.417969 0-8 3.582032-8 8zm0 0"/><path d="m472 128.003906h-354.03125l355.28125-56.097656c4.320312-.679688 7.292969-4.707031 6.671875-9.039062l-8-56c-.304687-2.121094-1.445313-4.03125-3.167969-5.300782-1.722656-1.273437-3.886718-1.800781-6-1.4687498l-456 71.9999998c-4.324218.683594-7.292968 4.710938-6.6718748 9.042969l6.7265628 47.101563c-3.878906.539062-6.777344 3.84375-6.808594 7.761718v56c0 4.417969 3.582031 8 8 8h16v232c0 4.417969 3.582031 8 8 8h416c4.417969 0 8-3.582031 8-8v-232h16c4.417969 0 8-3.582031 8-8v-56c0-4.417968-3.582031-8-8-8zm-99.3125 16 40 40h-89.375l-40-40zm-112 0 40 40h-89.375l-40-40zm-106.34375-79.007812 44.433594 34.046875-95.847656 15.136719-44.433594-34.046876zm235.328125-37.160156 44.433594 34.054687-95.847657 15.128906-44.433593-34.046875zm-117.671875 18.566406 44.433594 34.050781-95.839844 15.148437-44.433594-34.054687zm-123.3125 97.601562 40 40h-89.375l-40-40zm314.28125-86.671875-7.046875 1.113281-44.441406-34.050781 45.753906-7.199219zm-426.289062 26.238281 44.433593 34.03125-58.34375 9.234376-5.734375-40.160157zm-20.679688 60.433594h20.6875l40 40h-60.6875zm424 280h-400v-224h400zm24-240h-28.6875l-40-40h68.6875zm0 0"/></svg>