<svg height="480pt" viewBox="-17 0 480 480" width="480pt" xmlns="http://www.w3.org/2000/svg"><path d="m39.878906 312h37.546875l100.191407 67.871094-126.226563 85.503906c-2.910156 1.972656-4.191406 5.613281-3.160156 8.972656s4.136719 5.652344 7.648437 5.652344h64c1.601563 0 3.164063-.480469 4.488282-1.375l99.511718-67.425781 99.511719 67.417969c1.324219.898437 2.890625 1.382812 4.488281 1.382812h64c3.515625 0 6.621094-2.292969 7.652344-5.652344s-.253906-7-3.164062-8.972656l-126.222657-85.503906 100.191407-67.871094h37.542968c18.894532-.054688 35.175782-13.328125 39.035156-31.820312 3.863282-18.496094-5.742187-37.171876-23.035156-44.789063v-211.390625c0-13.253906-10.742187-24-24-24h-16c-13.253906 0-24 10.746094-24 24v16h-272v-16c0-13.253906-10.742187-24-24-24h-16c-13.253906 0-24 10.746094-24 24v211.390625c-17.289062 7.617187-26.898437 26.292969-23.035156 44.789063 3.863281 18.492187 20.140625 31.765624 39.035156 31.820312zm77.546875 152h-35.472656l109.925781-74.464844 17.738282 12zm212.910157 0-224.382813-152h35.472656l224.382813 152zm-160.382813-152h107.855469l-53.929688 36.527344zm85.925781 58.207031-17.734375-12 68.191407-46.207031h35.472656zm120-346.207031c0-4.417969 3.582032-8 8-8h16c4.417969 0 8 3.582031 8 8v208h-32zm-288 208v-32h272v32zm272-176v128h-272v-128zm-320-32c0-4.417969 3.582032-8 8-8h16c4.417969 0 8 3.582031 8 8v208h-32zm0 224h368c10.136719.042969 19.152344 6.445312 22.53125 16h-110.53125c-4.417968 0-8 3.582031-8 8s3.582032 8 8 8h110.53125c-3.378906 9.554688-12.394531 15.957031-22.53125 16h-368c-10.132812-.042969-19.148437-6.445312-22.527344-16h222.527344c4.417969 0 8-3.582031 8-8s-3.582031-8-8-8h-222.527344c3.378907-9.554688 12.394532-15.957031 22.527344-16zm0 0"/><path d="m191.023438 130.457031-6.902344 27.597657c-.78125 3.039062.28125 6.253906 2.722656 8.222656s5.808594 2.328125 8.613281.921875l28.421875-14.253907 28.425782 14.253907c2.796874 1.398437 6.148437 1.039062 8.585937-.917969s3.511719-5.152344 2.75-8.183594l-6.902344-27.601562 20.796875-20.800782c2.316406-2.285156 3.019532-5.742187 1.777344-8.75-1.242188-3.003906-4.179688-4.960937-7.433594-4.945312h-27.71875l-13.601562-20.441406c-1.566406-2.097656-4.035156-3.332032-6.652344-3.332032-2.621094 0-5.089844 1.234376-6.65625 3.332032l-13.648438 20.441406h-27.722656c-3.234375 0-6.148437 1.949219-7.386718 4.9375-1.238282 2.988281-.554688 6.429688 1.730468 8.71875zm16.855468-18.457031c2.675782 0 5.171875-1.335938 6.65625-3.558594l9.34375-14.042968 9.34375 14.015624c1.480469 2.234376 3.980469 3.582032 6.65625 3.585938h12.691406l-10.347656 10.34375c-1.984375 1.988281-2.785156 4.875-2.101562 7.601562l3.785156 15.117188-16.449219-8.222656c-2.25-1.125-4.902343-1.125-7.152343 0l-16.425782 8.222656 3.785156-15.117188c.683594-2.726562-.117187-5.613281-2.105468-7.601562l-10.367188-10.34375zm0 0"/><path d="m271.878906 280h16c4.417969 0 8-3.582031 8-8s-3.582031-8-8-8h-16c-4.417968 0-8 3.582031-8 8s3.582032 8 8 8zm0 0"/></svg>