<svg height="480pt" viewBox="-144 0 480 480" width="480pt" xmlns="http://www.w3.org/2000/svg"><path d="m.0546875 471.0625c-.2656255 2.269531.4492185 4.546875 1.9648435 6.253906 1.519531 1.707032 3.695313 2.683594 5.980469 2.683594h176c2.285156 0 4.457031-.976562 5.976562-2.683594 1.519532-1.707031 2.234376-3.984375 1.964844-6.253906l-31.941406-271.535156v-30.398438c6.519531-21.402344 11.863281-43.144531 16-65.128906v-96c0-4.417969-3.582031-8-8-8h-32c-4.417969 0-8 3.582031-8 8v48.273438c-13.191406 1.464843-24.984375 8.894531-32 20.160156-7.019531-11.265625-18.8125-18.695313-32-20.160156v-48.273438c0-4.417969-3.582031-8-8-8h-32c-4.417969 0-8 3.582031-8 8v96c4.136719 21.976562 9.476562 43.710938 16 65.105469v30.398437zm143.9453125-279.0625h-96v-16h96zm-127 272 9.992188-84.9375c12.972656 37.171875 40.121093 67.703125 75.519531 84.9375zm152.933594 0c-38.835938 0-75.820313-16.601562-101.628906-45.625-25.808594-29.019531-37.980469-67.691406-33.441407-106.261719l12.246094-104.113281h21.839844c-11.847657 39.039062-43.4375 173.273438 63.664062 223.246094 2.597657 1.261718 5.675781 1.027344 8.046875-.617188 2.375-1.640625 3.679688-4.4375 3.417969-7.3125-.265625-2.875-2.058594-5.382812-4.695313-6.5625-100.488281-46.898437-62.785156-180.914062-53.679687-208.753906h17.800781c-1.183594 25.441406-1.992187 100.921875 25.335938 155.574219 1.972656 3.957031 6.78125 5.5625 10.734375 3.585937 3.957031-1.976562 5.558593-6.78125 3.585937-10.734375-25.601562-51.203125-24.648437-125.136719-23.609375-148.425781h25.335938l30.113281 256zm-9.933594-448v51c-4.605469-4.171875-10.066406-7.289062-16-9.136719v-41.863281zm-72 88c0 4.417969 3.582031 8 8 8s8-3.582031 8-8c-1.011719-16.535156 11.472656-30.808594 28-32 16.507812 1.1875 28.988281 15.429688 28 31.953125-.21875 4.40625-7.050781 30.902344-14.066406 56.046875h-99.871094c-7.023438-25.183594-13.878906-51.734375-14.0625-56-1.011719-16.535156 11.472656-30.808594 28-32 16.523438 1.191406 29.011719 15.464844 28 32zm-40-88v41.863281c-5.933594 1.847657-11.394531 4.964844-16 9.136719v-51zm0 0"/></svg>