<svg height="480pt" viewBox="0 0 480 480" width="480pt" xmlns="http://www.w3.org/2000/svg"><path d="m455.976562 249.136719v-185.136719c-.027343-22.082031-17.921874-39.972656-40-40h-56v-16c0-4.417969-3.582031-8-8-8h-224c-4.417968 0-8 3.582031-8 8v16h-56c-22.082031.027344-39.972656 17.917969-40 40v185.136719c-15.585937 4.011719-25.753906 18.992187-23.722656 34.957031 2.035156 15.96875 15.628906 27.925781 31.722656 27.90625h16v160c0 4.417969 3.582032 8 8 8h32c4.417969 0 8-3.582031 8-8v-160h288v160c0 4.417969 3.582032 8 8 8h32c4.417969 0 8-3.582031 8-8v-160h16c16.09375.019531 29.6875-11.9375 31.71875-27.90625 2.03125-15.964844-8.132812-30.945312-23.71875-34.957031zm-40-209.136719c13.253907 0 24 10.746094 24 24v184h-80v-208zm-280 208v-48h208v48zm0-232h208v168h-208zm-96 48c0-13.253906 10.746094-24 24-24h56v208h-80zm40 400h-16v-152h16zm336 0h-16v-152h16zm32-168h-416c-8.835937 0-16-7.164062-16-16s7.164063-16 16-16h416c8.835938 0 16 7.164062 16 16s-7.164062 16-16 16zm0 0"/><path d="m79.976562 184c-13.253906 0-24 10.746094-24 24s10.746094 24 24 24c13.253907 0 24-10.746094 24-24s-10.746093-24-24-24zm0 32c-4.417968 0-8-3.582031-8-8s3.582032-8 8-8c4.417969 0 8 3.582031 8 8s-3.582031 8-8 8zm0 0"/><path d="m79.976562 120c-13.253906 0-24 10.746094-24 24s10.746094 24 24 24c13.253907 0 24-10.746094 24-24s-10.746093-24-24-24zm0 32c-4.417968 0-8-3.582031-8-8s3.582032-8 8-8c4.417969 0 8 3.582031 8 8s-3.582031 8-8 8zm0 0"/><path d="m79.976562 56c-13.253906 0-24 10.746094-24 24s10.746094 24 24 24c13.253907 0 24-10.746094 24-24s-10.746093-24-24-24zm0 32c-4.417968 0-8-3.582031-8-8s3.582032-8 8-8c4.417969 0 8 3.582031 8 8s-3.582031 8-8 8zm0 0"/><path d="m178.320312 157.65625c3.125 3.121094 8.1875 3.121094 11.3125 0l88-88c3.03125-3.140625 2.988282-8.128906-.097656-11.214844-3.085937-3.085937-8.078125-3.128906-11.214844-.097656l-88 88c-3.125 3.125-3.125 8.1875 0 11.3125zm0 0"/><path d="m234.320312 157.65625c3.125 3.121094 8.1875 3.121094 11.3125 0l48-48c3.03125-3.140625 2.988282-8.128906-.097656-11.214844-3.085937-3.085937-8.078125-3.128906-11.214844-.097656l-48 48c-3.125 3.125-3.125 8.1875 0 11.3125zm0 0"/><path d="m175.976562 120c2.121094 0 4.15625-.84375 5.65625-2.34375l48-48c3.03125-3.140625 2.988282-8.128906-.097656-11.214844-3.085937-3.085937-8.078125-3.128906-11.214844-.097656l-48 48c-2.289062 2.289062-2.972656 5.730469-1.734374 8.71875 1.238281 2.988281 4.15625 4.9375 7.390624 4.9375zm0 0"/><path d="m263.976562 480h32c4.417969 0 8-3.582031 8-8v-80h16c13.253907 0 24-10.746094 24-24v-16c0-13.253906-10.746093-24-24-24h-160c-13.253906 0-24 10.746094-24 24v16c0 13.253906 10.746094 24 24 24h16v80c0 4.417969 3.582032 8 8 8h32c4.417969 0 8-3.582031 8-8v-80h32v80c0 4.417969 3.582032 8 8 8zm24-16h-16v-72h16zm-136-96v-16c0-4.417969 3.582032-8 8-8h160c4.417969 0 8 3.582031 8 8v16c0 4.417969-3.582031 8-8 8h-160c-4.417968 0-8-3.582031-8-8zm56 96h-16v-72h16zm0 0"/><path d="m399.976562 232c13.253907 0 24-10.746094 24-24s-10.746093-24-24-24c-13.253906 0-24 10.746094-24 24s10.746094 24 24 24zm0-32c4.417969 0 8 3.582031 8 8s-3.582031 8-8 8c-4.417968 0-8-3.582031-8-8s3.582032-8 8-8zm0 0"/><path d="m399.976562 168c13.253907 0 24-10.746094 24-24s-10.746093-24-24-24c-13.253906 0-24 10.746094-24 24s10.746094 24 24 24zm0-32c4.417969 0 8 3.582031 8 8s-3.582031 8-8 8c-4.417968 0-8-3.582031-8-8s3.582032-8 8-8zm0 0"/><path d="m399.976562 104c13.253907 0 24-10.746094 24-24s-10.746093-24-24-24c-13.253906 0-24 10.746094-24 24s10.746094 24 24 24zm0-32c4.417969 0 8 3.582031 8 8s-3.582031 8-8 8c-4.417968 0-8-3.582031-8-8s3.582032-8 8-8zm0 0"/><path d="m255.976562 216h-32c-4.417968 0-8 3.582031-8 8s3.582032 8 8 8h32c4.417969 0 8-3.582031 8-8s-3.582031-8-8-8zm0 0"/></svg>