<svg height="479pt" viewBox="0 0 479.98641 479" width="479pt" xmlns="http://www.w3.org/2000/svg"><path d="m117.453125 231.933594c7.9375 2.738281 16.261719 4.171875 24.65625 4.25 36.503906 0 58.234375-29.984375 65.371094-49.023438.78125-2.089844.660156-4.40625-.335938-6.402344-1.105469-2.207031-28-53.453124-129.105469-28.183593-3.089843.777343-5.421874 3.308593-5.945312 6.449219-5.230469 32.226562 14.140625 63.363281 45.359375 72.910156zm-29.992187-65.140625c70.675781-16.074219 96.707031 9.277343 103.480468 18.285156-5.527344 11.535156-25.957031 45.824219-68.429687 31.6875-21.945313-6.394531-36.511719-27.164063-35.050781-49.972656zm0 0"/><path d="m337.855469 236.183594c8.394531-.078125 16.71875-1.511719 24.65625-4.25 31.210937-9.546875 50.582031-40.675782 45.359375-72.894532-.523438-3.140624-2.855469-5.671874-5.945313-6.449218-101.054687-25.261719-128 25.992187-129.101562 28.183594-1 1.996093-1.121094 4.316406-.335938 6.402343 7.132813 19.023438 28.855469 49.007813 65.367188 49.007813zm54.6875-69.382813c1.558593 22.847657-13.070313 43.675781-35.089844 49.964844-42.453125 14.113281-62.910156-20.160156-68.429687-31.6875 6.773437-9.007813 32.824218-34.382813 103.519531-18.277344zm0 0"/><path d="m407.09375 288.351562c0-4.417968-3.582031-8-8-8s-8 3.582032-8 8c-.015625 17.175782-13.9375 31.09375-31.109375 31.113282-4.417969 0-8 3.578125-8 8 0 4.417968 3.582031 8 8 8 17.171875.015625 31.089844 13.929687 31.109375 31.101562 0 4.417969 3.582031 8 8 8s8-3.582031 8-8c.019531-17.171875 13.9375-31.089844 31.113281-31.101562 4.417969 0 8-3.582032 8-8 0-4.421875-3.582031-8-8-8-17.175781-.019532-31.09375-13.9375-31.113281-31.113282zm-8 52c-3.421875-5.082031-7.796875-9.457031-12.878906-12.878906 5.082031-3.425781 9.457031-7.804687 12.878906-12.890625 3.421875 5.089844 7.796875 9.464844 12.882812 12.890625-5.085937 3.417969-9.460937 7.792969-12.882812 12.878906zm0 0"/><path d="m239.984375 88.351562c4.417969 0 8-3.582031 8-8v-8c0-4.417968-3.582031-8-8-8s-8 3.582032-8 8v8c0 4.417969 3.582031 8 8 8zm0 0"/><path d="m1.773438 115.3125c-1.511719 1.875-2.097657 4.328125-1.597657 6.6875 5.484375 23.851562 13.558594 47.03125 24.078125 69.128906-.121094.398438-.214844.808594-.269531 1.222656v264c0 13.253907 10.742187 24 24 24 13.253906 0 24-10.746093 24-24v-200c17.773437 15.394532 40.480469 23.910157 64 24 43.285156-.304687 82.859375-24.519531 102.839844-62.921874 14.542969 34.457031 51.628906 62.921874 105.160156 62.921874 101.328125 0 134.46875-151.878906 135.832031-158.351562.496094-2.359375-.097656-4.820312-1.617187-6.691406-1.523438-1.871094-3.804688-2.957032-6.214844-2.957032h-124.320313c7.925782-8.773437 12.316407-20.175781 12.320313-32v-48c0-4.417968-3.582031-8-8-8h-16c-20.792969.003907-40.570313 8.996094-54.242187 24.664063l-35.4375-45.601563c-1.578126-1.851562-3.886719-2.921874-6.320313-2.921874s-4.746094 1.070312-6.320313 2.921874l-35.433593 45.601563c-13.667969-15.675781-33.449219-24.671875-54.246094-24.664063h-16c-4.417969 0-8 3.582032-8 8v48c0 11.824219 4.390625 23.226563 12.320313 32h-124.320313c-2.410156 0-4.691406 1.089844-6.210937 2.960938zm46.210937 349.039062c-4.417969 0-8-3.582031-8-8v-236.992187c4.820313 7.449219 10.167969 14.550781 16 21.238281v215.753906c0 4.417969-3.582031 8-8 8zm288-424h8v40c0 17.671876-14.328125 32-32 32h-30.753906l13.425781-17.265624c6.757812-8.660157 6.757812-20.808594 0-29.472657l-2.792969-3.589843c10.574219-13.644532 26.855469-21.644532 44.121094-21.671876zm-96-18.96875 42.046875 54.0625c2.238281 2.886719 2.238281 6.921876 0 9.808594l-42.046875 54.066406-42.050781-54.066406c-2.238282-2.886718-2.238282-6.921875 0-9.808594zm-104 58.96875v-40h8c17.261719.027344 33.546875 8.027344 44.117187 21.679688l-2.789062 3.582031c-6.761719 8.664063-6.761719 20.8125 0 29.472657l13.421875 17.265624h-30.75c-17.675781 0-32-14.328124-32-32zm75.199219 48 22.480468 28.910157c1.515626 1.953125 3.847657 3.097656 6.320313 3.097656 2.46875 0 4.804687-1.144531 6.320313-3.097656l22.476562-28.910157h192.953125c-8.847656 32.519532-42.894531 136-117.75 136-47.203125 0-96-29.921874-96-80 .179687-4.417968-3.253906-8.148437-7.671875-8.328124-4.421875-.179688-8.148438 3.253906-8.328125 7.671874-3.59375 43.71875-47.5625 80.65625-96 80.65625-74.859375 0-108.90625-103.480468-117.753906-136zm0 0"/></svg>