<svg height="479pt" viewBox="-19 0 479 479.84903" width="479pt" xmlns="http://www.w3.org/2000/svg"><path d="m208.425781 479.847656h32c4.417969 0 8-3.582031 8-8v-112h32c4.417969 0 8-3.582031 8-8v-208h23.199219c6.175781.003906 11.796875-3.550781 14.449219-9.125 2.65625-5.574218 1.863281-12.179687-2.035157-16.96875l-93.40625-114.953125c-1.570312-1.78125-3.832031-2.800781-6.207031-2.800781s-4.636719 1.019531-6.210937 2.800781l-93.40625 114.953125c-3.894532 4.789063-4.6875 11.394532-2.035156 16.96875 2.652343 5.574219 8.277343 9.128906 14.449218 9.125h23.203125v208c0 4.417969 3.582031 8 8 8h32v112c0 4.417969 3.582031 8 8 8zm24-16h-16v-104h16zm40-208h-96v-48h96zm-96 16h96v40h-96zm86.703125-203.679687c-9.015625 12.367187-23.398437 19.683593-38.703125 19.683593-15.304687 0-29.691406-7.316406-38.707031-19.683593l38.707031-47.632813zm-125.90625 59.679687 38.234375-47.046875c12.066407 14.605469 30.023438 23.0625 48.972657 23.0625 18.945312 0 36.902343-8.457031 48.972656-23.0625l38.277344 47.046875zm135.203125 16v48h-96v-48zm-96 184h96v16h-96zm0 0"/><path d="m72.425781 447.847656c4.417969 0 8-3.582031 8-8 .039063-35.328125 28.667969-63.957031 64-64 4.417969 0 8-3.582031 8-8 0-4.417968-3.582031-8-8-8-44.164062.050782-79.953125 35.839844-80 80 0 4.417969 3.582031 8 8 8zm0 0"/><path d="m72.425781 295.847656c0-4.417968-3.582031-8-8-8s-8 3.582032-8 8c0 30.875 32.300781 56 72 56 4.417969 0 8-3.582031 8-8 0-4.417968-3.582031-8-8-8-30.882812 0-56-17.941406-56-40zm0 0"/><path d="m171.425781 407.265625c4.097657-1.652344 6.085938-6.3125 4.433594-10.414063-1.648437-4.097656-6.3125-6.085937-10.410156-4.433593-12.179688 5.167969-21.796875 14.980469-26.710938 27.261719-3.925781 13.773437-1.417969 28.582031 6.832031 40.289062 2.3125 3.699219 7.160157 4.859375 10.902344 2.613281 3.738282-2.246093 4.988282-7.074219 2.808594-10.851562-5.671875-7.714844-7.652344-17.535157-5.417969-26.839844 3.382813-7.90625 9.667969-14.214844 17.5625-17.625zm0 0"/><path d="m392.425781 447.847656c4.417969 0 8-3.582031 8-8-.050781-44.160156-35.839843-79.949218-80-80-4.417969 0-8 3.582032-8 8 0 4.417969 3.582031 8 8 8 35.328125.042969 63.960938 28.671875 64 64 0 4.417969 3.582031 8 8 8zm0 0"/><path d="m400.425781 287.847656c-4.417969 0-8 3.582032-8 8 0 22.058594-25.121093 40-56 40-4.417969 0-8 3.582032-8 8 0 4.417969 3.582031 8 8 8 39.695313 0 72-25.125 72-56 0-4.417968-3.582031-8-8-8zm0 0"/><path d="m308.304688 462.703125c3.785156 2.277344 8.699218 1.050781 10.976562-2.734375 8.246094-11.707031 10.757812-26.515625 6.832031-40.289062-4.917969-12.28125-14.53125-22.09375-26.710937-27.261719-4.101563-1.652344-8.761719.335937-10.414063 4.433593-1.648437 4.101563.335938 8.761719 4.4375 10.414063 7.894531 3.40625 14.191407 9.703125 17.597657 17.597656 2.238281 9.308594.257812 19.128907-5.414063 26.839844-1.105469 1.816406-1.441406 3.996094-.933594 6.0625.503907 2.0625 1.8125 3.839844 3.628907 4.9375zm0 0"/><path d="m420.425781 383.847656c11.042969 0 20-8.953125 20-20 0-11.042968-8.957031-20-20-20-11.046875 0-20 8.957032-20 20 0 11.046875 8.953125 20 20 20zm0-24c2.207031 0 4 1.792969 4 4 0 2.210938-1.792969 4-4 4-2.210937 0-4-1.789062-4-4 0-2.207031 1.789063-4 4-4zm0 0"/><path d="m320.425781 275.847656c0 11.046875 8.953125 20 20 20 11.042969 0 20-8.953125 20-20 0-11.042968-8.957031-20-20-20-11.046875 0-20 8.957032-20 20zm24 0c0 2.210938-1.792969 4-4 4-2.210937 0-4-1.789062-4-4 0-2.207031 1.789063-4 4-4 2.207031 0 4 1.792969 4 4zm0 0"/><path d="m336.425781 459.847656c0 11.046875 8.953125 20 20 20 11.042969 0 20-8.953125 20-20 0-11.042968-8.957031-20-20-20-11.046875 0-20 8.957032-20 20zm24 0c0 2.210938-1.792969 4-4 4-2.210937 0-4-1.789062-4-4 0-2.207031 1.789063-4 4-4 2.207031 0 4 1.792969 4 4zm0 0"/><path d="m144.425781 231.847656v-64c0-4.417968-3.582031-8-8-8s-8 3.582032-8 8v64c0 4.417969 3.582031 8 8 8s8-3.582031 8-8zm0 0"/><path d="m112.425781 263.847656v-64c0-4.417968-3.582031-8-8-8s-8 3.582032-8 8v64c0 4.417969 3.582031 8 8 8s8-3.582031 8-8zm0 0"/><path d="m48.425781 347.847656c0-11.042968-8.957031-20-20-20-11.046875 0-20 8.957032-20 20 0 11.046875 8.953125 20 20 20 11.042969 0 20-8.953125 20-20zm-20 4c-2.210937 0-4-1.789062-4-4 0-2.207031 1.789063-4 4-4 2.207031 0 4 1.792969 4 4 0 2.210938-1.792969 4-4 4zm0 0"/><path d="m.425781 451.847656c0 11.046875 8.953125 20 20 20 11.042969 0 20-8.953125 20-20 0-11.042968-8.957031-20-20-20-11.046875 0-20 8.957032-20 20zm24 0c0 2.210938-1.792969 4-4 4-2.210937 0-4-1.789062-4-4 0-2.207031 1.789063-4 4-4 2.207031 0 4 1.792969 4 4zm0 0"/></svg>