<svg height="480pt" viewBox="0 -40 480 480" width="480pt" xmlns="http://www.w3.org/2000/svg"><path d="m120 120h-48c-4.417969 0-8 3.582031-8 8v192c0 4.417969 3.582031 8 8 8h48c4.417969 0 8-3.582031 8-8v-192c0-4.417969-3.582031-8-8-8zm-8 192h-32v-176h32zm0 0"/><path d="m472 120h-232v-16h24c4.417969 0 8-3.582031 8-8v-40c0-4.417969-3.582031-8-8-8h-48v-8c-.027344-22.082031-17.917969-39.9726562-40-40h-80c-22.082031.0273438-39.972656 17.917969-40 40v8h-48c-4.417969 0-8 3.582031-8 8v40c0 4.417969 3.582031 8 8 8h24v240h-24c-4.417969 0-8 3.582031-8 8v40c0 4.417969 3.582031 8 8 8h256c4.417969 0 8-3.582031 8-8v-40c0-4.417969-3.582031-8-8-8h-24v-32h232c4.417969 0 8-3.582031 8-8v-176c0-4.417969-3.582031-8-8-8zm-232 136v-80h224v80zm224-96h-32v-24h32zm-48 0h-32v-24h32zm-48 0h-32v-24h32zm-48 0h-32v-24h32zm-48-24v24h-32v-24zm-200-96c0-13.253906 10.746094-24 24-24h80c13.253906 0 24 10.746094 24 24v8h-128zm-56 24h240v24h-240zm240 320h-240v-24h240zm-208-40v-240h176v240zm192-72h32v24h-32zm48 0h32v24h-32zm48 0h32v24h-32zm48 0h32v24h-32zm80 24h-32v-24h32zm0 0"/><path d="m200 152c-4.417969 0-8 3.582031-8 8v112c0 4.417969 3.582031 8 8 8s8-3.582031 8-8v-112c0-4.417969-3.582031-8-8-8zm0 0"/><path d="m200 296c-4.417969 0-8 3.582031-8 8v16c0 4.417969 3.582031 8 8 8s8-3.582031 8-8v-16c0-4.417969-3.582031-8-8-8zm0 0"/></svg>