<svg height="480pt" viewBox="-24 0 480 480" width="480pt" xmlns="http://www.w3.org/2000/svg"><path d="m296 216c4.417969 0 8-3.582031 8-8v-96c0-4.417969-3.582031-8-8-8s-8 3.582031-8 8v96c0 4.417969 3.582031 8 8 8zm0 0"/><path d="m296 256c4.417969 0 8-3.582031 8-8v-8c0-4.417969-3.582031-8-8-8s-8 3.582031-8 8v8c0 4.417969 3.582031 8 8 8zm0 0"/><path d="m216 448c4.417969 0 8-3.582031 8-8s-3.582031-8-8-8c-148.433594 0-159.871094-55.960938-160.078125-57.113281-.679687-4.285157-4.652344-7.25-8.957031-6.679688-4.300782.570313-7.363282 4.46875-6.902344 8.785157.363281 2.894531 10.769531 71.007812 175.9375 71.007812zm0 0"/><path d="m216 480c121.128906 0 216-42.167969 216-96 0-33.945312-37.550781-64.136719-100.710938-81.503906l12.710938-254.496094c0-31.511719-64.390625-48-128-48-3.972656 0-7.945312.0625-11.921875.191406-59.484375 1.929688-116.078125 18.265625-116.078125 47.808594v.230469.167969l12.71875 254.097656c-63.167969 17.359375-100.71875 47.558594-100.71875 81.503906 0 53.832031 94.871094 96 216 96zm-110.734375-406.679688c23.390625 14.960938 67.230469 22.679688 110.734375 22.679688s87.335938-7.71875 110.71875-22.671875l-12.597656 252.183594c-31.277344 12.203125-64.550782 18.472656-98.121094 18.488281-33.867188.304688-67.394531-6.796875-98.230469-20.800781zm13.414063 268.128907c30.925781 12.457031 63.980468 18.757812 97.320312 18.550781 33.128906-.09375 66.003906-5.792969 97.230469-16.855469l-1.230469 24.457031v.398438c0 15.511719-33.648438 32-96 32s-96-16.488281-96-32.398438zm97.320312-325.449219c4.265625 0 8.441406.070312 12.527344.214844 61.074218 2.128906 99.367187 19.503906 99.472656 31.738281v.125c-.191406 13.050781-43.769531 31.921875-112 31.921875-68.367188 0-112-18.953125-112-32s43.632812-32 112-32zm-114.464844 302.847656 2.464844 49.152344c0 29.160156 44 48 112 48 4.265625 0 8.417969-.070312 12.457031-.214844 2.558594-.097656 5.007813-.265625 7.488281-.410156 1.4375-.085938 2.941407-.136719 4.351563-.238281 54.023437-3.992188 87.703125-21.535157 87.703125-46.738281l2.472656-49.550782c53.007813 15.191406 85.527344 39.753906 85.527344 65.152344 0 43.359375-91.585938 80-200 80s-200-36.640625-200-80c0-25.398438 32.519531-49.960938 85.535156-65.152344zm0 0"/></svg>