<svg height="480pt" viewBox="0 0 480 480.11187" width="480pt" xmlns="http://www.w3.org/2000/svg"><path d="m456.054688 432.113281h-4l-20-26.664062v-261.335938c12.050781.027344 22.246093-8.902343 23.804687-20.851562 1.554687-11.949219-6.011719-23.195313-17.667969-26.253907 16.859375-15.675781 22.402344-40.074218 13.980469-61.496093-8.421875-21.425781-29.097656-35.511719-52.117187-35.511719-23.019532 0-43.695313 14.085938-52.117188 35.511719-8.421875 21.421875-2.875 45.820312 13.984375 61.496093-10.734375 2.808594-18.128906 12.628907-17.867187 23.71875.265624 11.09375 8.121093 20.546876 18.976562 22.839844-14.742188 25.714844-57.472656 88.546875-122.976562 88.546875-65.367188 0-108.175782-62.832031-122.957032-88.554687 10.84375-2.300782 18.6875-11.757813 18.949219-22.839844.261719-11.085938-7.128906-20.898438-17.855469-23.710938 16.859375-15.675781 22.402344-40.074218 13.980469-61.496093-8.421875-21.425781-29.097656-35.511719-52.117187-35.511719-23.019532 0-43.695313 14.085938-52.117188 35.511719-8.421875 21.421875-2.875 45.820312 13.984375 61.496093-11.660156 3.058594-19.226563 14.304688-17.667969 26.253907 1.554688 11.949219 11.75 20.878906 23.800782 20.851562v261.335938l-20 26.664062h-4c-13.253907 0-24.0000005 10.742188-24.0000005 24 0 13.253907 10.7460935 24 24.0000005 24h432c13.257812 0 24-10.746093 24-24 0-13.257812-10.742188-24-24-24zm-324 0-20-26.664062v-189.152344c21.105468 24.855469 64.328124 63.816406 128 63.816406 63.671874 0 106.898437-38.960937 128-63.816406v189.152344l-20 26.664062zm248-16h40l12 16h-64zm36-16h-32v-256h32zm-56-344c0-22.09375 17.910156-40 40-40 22.09375 0 40 17.90625 40 40 0 22.089844-17.90625 40-40 40-22.078126-.027343-39.972657-17.921875-40-40zm0 64c0-4.417969 3.582031-8 8-8h64c4.417968 0 8 3.582031 8 8s-3.582032 8-8 8h-64c-4.417969 0-8-3.582031-8-8zm-120 128c63.617187 0 106.746093-49.769531 128-81.984375v23.640625c-7.613282 11.460938-52.847657 74.34375-128 74.34375-75.152344 0-120.382813-62.882812-128-74.34375v-23.640625c21.257812 32.214844 64.386718 81.984375 128 81.984375zm-200-192c0-22.09375 17.910156-40 40-40 22.09375 0 40 17.90625 40 40 0 22.089844-17.90625 40-40 40-22.078126-.027343-39.972657-17.921875-40-40zm0 64c0-4.417969 3.582031-8 8-8h64c4.417968 0 8 3.582031 8 8s-3.582032 8-8 8h-64c-4.417969 0-8-3.582031-8-8zm56 24v256h-32v-256zm-36 272h40l12 16h-64zm396 48h-432c-4.417969 0-8-3.582031-8-8s3.582031-8 8-8h432c4.417968 0 8 3.582031 8 8s-3.582032 8-8 8zm0 0"/><path d="m264.054688 104.113281c0 17.671875-14.324219 32-32 32-4.417969 0-8 3.582031-8 8s3.582031 8 8 8c17.675781 0 32 14.324219 32 32 0 4.417969 3.582031 8 8 8 4.417968 0 8-3.582031 8-8 0-17.675781 14.328124-32 32-32 4.417968 0 8-3.582031 8-8s-3.582032-8-8-8c-17.671876 0-32-14.328125-32-32 0-4.417969-3.582032-8-8-8-4.417969 0-8 3.582031-8 8zm21.519531 40c-5.359375 3.558594-9.957031 8.15625-13.519531 13.519531-3.5625-5.363281-8.15625-9.960937-13.519532-13.519531 5.363282-3.5625 9.957032-8.160156 13.519532-13.519531 3.5625 5.359375 8.160156 9.957031 13.519531 13.519531zm0 0"/><path d="m184.054688 56.113281c17.675781 0 32 14.324219 32 32 0 4.417969 3.582031 8 8 8 4.417968 0 8-3.582031 8-8 0-17.675781 14.328124-32 32-32 4.417968 0 8-3.582031 8-8s-3.582032-8-8-8c-17.671876 0-32-14.328125-32-32 0-4.417969-3.582032-8-8-8-4.417969 0-8 3.582031-8 8 0 17.671875-14.324219 32-32 32-4.417969 0-8 3.582031-8 8s3.582031 8 8 8zm40-21.519531c3.5625 5.359375 8.160156 9.957031 13.519531 13.519531-5.359375 3.558594-9.957031 8.15625-13.519531 13.519531-3.5625-5.363281-8.15625-9.960937-13.519532-13.519531 5.363282-3.5625 9.957032-8.160156 13.519532-13.519531zm0 0"/></svg>