<svg height="480pt" viewBox="0 0 480 480" width="480pt" xmlns="http://www.w3.org/2000/svg"><path d="m240 223.992188c26.507812 0 48-21.492188 48-48 0-26.507813-21.492188-48-48-48s-48 21.492187-48 48c.027344 26.5 21.5 47.972656 48 48zm0-80c17.671875 0 32 14.328124 32 32 0 17.671874-14.328125 32-32 32s-32-14.328126-32-32c0-17.671876 14.328125-32 32-32zm0 0"/><path d="m96 175.992188c.023438 21.902343 17.660156 39.710937 39.558594 39.953124 11.363281 29.679688 34.808594 53.128907 64.488281 64.496094 0 22.0625 17.886719 39.949219 39.953125 39.949219s39.953125-17.886719 39.953125-39.949219c29.664063-11.445312 53.121094-34.875 64.597656-64.527344 21.84375-.335937 39.371094-18.148437 39.34375-39.992187-.023437-21.847656-17.585937-39.621094-39.429687-39.90625-11.433594-29.671875-34.863282-53.140625-64.519532-64.617187-.339843-21.839844-18.160156-39.363282-40.003906-39.332032-21.847656.03125-39.617187 17.601563-39.894531 39.445313-29.671875 11.398437-53.121094 34.835937-64.527344 64.503906-21.894531.261719-39.507812 18.082031-39.519531 39.976563zm144 128c-13.253906 0-24-10.746094-24-24 0-13.253907 10.746094-24 24-24s24 10.746093 24 24c0 13.253906-10.746094 24-24 24zm128-128c0 13.253906-10.746094 24-24 24s-24-10.746094-24-24c0-13.253907 10.746094-24 24-24s24 10.746093 24 24zm-128-128c13.253906 0 24 10.746093 24 24 0 13.253906-10.746094 24-24 24s-24-10.746094-24-24c0-13.253907 10.746094-24 24-24zm-36.871094 39.480468c6.242188 14.835938 20.769532 24.484375 36.867188 24.484375s30.625-9.648437 36.867187-24.484375c23.304688 9.792969 41.84375 28.324219 51.648438 51.625-14.839844 6.238282-24.492188 20.769532-24.492188 36.871094 0 16.097656 9.652344 30.628906 24.492188 36.871094-9.800781 23.296875-28.328125 41.832031-51.625 51.640625-6.238281-14.839844-20.769531-24.492188-36.871094-24.492188-16.097656 0-30.628906 9.652344-36.871094 24.492188-23.34375-9.738281-41.902343-28.292969-51.640625-51.632813 14.835938-6.242187 24.484375-20.769531 24.484375-36.867187 0-16.097657-9.648437-30.625-24.484375-36.867188 9.757813-23.328125 28.300782-41.875 51.625-51.640625zm-67.128906 64.519532c13.253906 0 24 10.746093 24 24 0 13.253906-10.746094 24-24 24s-24-10.746094-24-24c0-13.253907 10.746094-24 24-24zm0 0"/><path d="m128 399.992188c-13.253906 0-24 10.746093-24 24 0 13.253906 10.746094 24 24 24s24-10.746094 24-24c0-13.253907-10.746094-24-24-24zm0 32c-4.417969 0-8-3.582032-8-8 0-4.417969 3.582031-8 8-8s8 3.582031 8 8c0 4.417968-3.582031 8-8 8zm0 0"/><path d="m192 399.992188c-13.253906 0-24 10.746093-24 24 0 13.253906 10.746094 24 24 24s24-10.746094 24-24c0-13.253907-10.746094-24-24-24zm0 32c-4.417969 0-8-3.582032-8-8 0-4.417969 3.582031-8 8-8s8 3.582031 8 8c0 4.417968-3.582031 8-8 8zm0 0"/><path d="m368 399.992188h-120c-4.417969 0-8 3.582031-8 8 0 4.417968 3.582031 8 8 8h120c4.417969 0 8-3.582032 8-8 0-4.417969-3.582031-8-8-8zm0 0"/><path d="m368 431.992188h-120c-4.417969 0-8 3.582031-8 8 0 4.417968 3.582031 8 8 8h120c4.417969 0 8-3.582032 8-8 0-4.417969-3.582031-8-8-8zm0 0"/><path d="m472 151.992188h-57.679688c-11.976562-87.097657-86.402343-151.992188-174.320312-151.992188s-162.34375 64.894531-174.320312 151.992188h-57.679688c-4.417969 0-8 3.582031-8 8v280c0 4.417968 3.582031 8 8 8h64v24c0 4.417968 3.582031 8 8 8h320c4.417969 0 8-3.582032 8-8v-24h64c4.417969 0 8-3.582032 8-8v-280c0-4.417969-3.582031-8-8-8zm-72 216h-320c-4.417969 0-8 3.582031-8 8v24h-24v-200h17.679688c11.976562 87.097656 86.402343 151.992187 174.320312 151.992187s162.34375-64.894531 174.320312-151.992187h17.679688v200h-24v-24c0-4.417969-3.582031-8-8-8zm-274.664062-303.351563 13.007812 13.007813c3.140625 3.03125 8.128906 2.988281 11.214844-.097657 3.085937-3.085937 3.128906-8.074219.097656-11.214843l-12.625-12.625c59.433594-50.292969 146.503906-50.292969 205.9375 0l-12.625 12.625c-2.078125 2.007812-2.914062 4.984374-2.179688 7.78125.730469 2.796874 2.914063 4.980468 5.710938 5.710937 2.796875.734375 5.773438-.101563 7.78125-2.179687l13.007812-13.007813c59.023438 60.390625 60.625 156.359375 3.648438 218.6875-.1875-.351563-.40625-.683594-.65625-.992187l-16-16c-3.140625-3.03125-8.128906-2.988282-11.214844.097656-3.085937 3.085937-3.128906 8.074218-.097656 11.214844l16 16c.308594.25.640625.46875.992188.65625-60.761719 55.585937-153.910157 55.585937-214.671876 0 .351563-.1875.683594-.40625.992188-.65625l16-16c3.03125-3.140626 2.988281-8.128907-.097656-11.214844-3.085938-3.085938-8.074219-3.128906-11.214844-.097656l-16 16c-.25.308593-.46875.640624-.65625.992187-56.976562-62.328125-55.375-158.296875 3.648438-218.6875zm-109.335938 367.351563v-264h48.199219c-.121094 2.65625-.199219 5.320312-.199219 8 0 2.679687.078125 5.34375.199219 8h-24.199219c-4.417969 0-8 3.582031-8 8v216c0 4.417968 3.582031 8 8 8h32v16zm376 32h-304v-80h304zm72-32h-56v-16h32c4.417969 0 8-3.582032 8-8v-216c0-4.417969-3.582031-8-8-8h-24.199219c.121094-2.65625.199219-5.320313.199219-8 0-2.679688-.078125-5.34375-.199219-8h48.199219zm0 0"/></svg>