<svg height="480pt" viewBox="0 0 480 480" width="480pt" xmlns="http://www.w3.org/2000/svg"><path d="m476.398438 97.320312c-2.242188-1.480468-5.078126-1.730468-7.550782-.671874l-110.449218 47.351562h-22.398438v-22.398438l47.351562-110.480468c1.046876-2.46875.785157-5.296875-.691406-7.53125-1.480468-2.238282-3.980468-3.58593775-6.660156-3.589844h-272c-2.6875 0-5.199219 1.351562-6.679688 3.597656-1.480468 2.246094-1.730468 5.082032-.671874 7.554688l47.351562 110.449218v22.398438h-22.398438l-110.449218-47.351562c-2.472656-1.058594-5.308594-.808594-7.554688.671874-2.246094 1.480469-3.597656 3.992188-3.597656 6.679688v272c0 4.417969 3.582031 8 8 8 1.085938.003906 2.15625-.21875 3.152344-.648438l110.449218-47.351562h22.398438v22.398438l-47.351562 110.480468c-1.046876 2.46875-.785157 5.296875.691406 7.53125 1.480468 2.238282 3.980468 3.585938 6.660156 3.589844h272c2.6875 0 5.199219-1.351562 6.679688-3.597656 1.480468-2.246094 1.730468-5.082032.671874-7.554688l-47.351562-110.449218v-22.398438h22.398438l110.488281 47.351562c.984375.425782 2.042969.648438 3.113281.648438 4.417969 0 8-3.582031 8-8v-272c0-2.691406-1.351562-5.199219-3.601562-6.679688zm-112.535157-81.320312-41.136719 96h-165.453124l-41.136719-96zm-347.863281 100.136719 96 41.136719v165.453124l-96 41.136719zm100.136719 347.863281 41.136719-96h165.453124l41.136719 96zm211.863281-144c-4.417969 0-8 3.582031-8 8v24h-160v-24c0-4.417969-3.582031-8-8-8h-24v-160h24c4.417969 0 8-3.582031 8-8v-24h160v24c0 4.417969 3.582031 8 8 8h24v160zm136 43.863281-96-41.136719v-165.453124l96-41.136719zm0 0"/><path d="m240 152c-48.601562 0-88 39.398438-88 88s39.398438 88 88 88 88-39.398438 88-88c-.058594-48.578125-39.421875-87.941406-88-88zm0 160c-39.765625 0-72-32.234375-72-72s32.234375-72 72-72 72 32.234375 72 72c-.042969 39.746094-32.253906 71.957031-72 72zm0 0"/><path d="m176 432h-24c-4.417969 0-8 3.582031-8 8s3.582031 8 8 8h24c4.417969 0 8-3.582031 8-8s-3.582031-8-8-8zm0 0"/><path d="m296 48h24c4.417969 0 8-3.582031 8-8s-3.582031-8-8-8h-24c-4.417969 0-8 3.582031-8 8s3.582031 8 8 8zm0 0"/><path d="m200 440c0 4.417969 3.582031 8 8 8h120c4.417969 0 8-3.582031 8-8s-3.582031-8-8-8h-120c-4.417969 0-8 3.582031-8 8zm0 0"/><path d="m240 184c-4.417969 0-8 3.582031-8 8s3.582031 8 8 8c1.601562 0 40 .457031 40 40 0 4.417969 3.582031 8 8 8s8-3.582031 8-8c0-44.296875-36.632812-56-56-56zm0 0"/></svg>