<svg height="480pt" viewBox="0 -48 480 480" width="480pt" xmlns="http://www.w3.org/2000/svg"><path d="m128 232c48.601562 0 88-39.398438 88-88s-39.398438-88-88-88-88 39.398438-88 88c.058594 48.578125 39.421875 87.941406 88 88zm0-160c39.765625 0 72 32.234375 72 72s-32.234375 72-72 72-72-32.234375-72-72c.042969-39.746094 32.253906-71.957031 72-72zm0 0"/><path d="m128 181.480469c20.699219 0 37.480469-16.78125 37.480469-37.480469s-16.78125-37.480469-37.480469-37.480469-37.480469 16.78125-37.480469 37.480469c.027344 20.6875 16.792969 37.453125 37.480469 37.480469zm0-58.960938c11.863281 0 21.480469 9.617188 21.480469 21.480469s-9.617188 21.480469-21.480469 21.480469-21.480469-9.617188-21.480469-21.480469c.019531-11.855469 9.625-21.460938 21.480469-21.480469zm0 0"/><path d="m88 48c4.417969 0 8-3.582031 8-8s-3.582031-8-8-8h-48c-4.417969 0-8 3.582031-8 8s3.582031 8 8 8zm0 0"/><path d="m184 48h16c4.417969 0 8-3.582031 8-8s-3.582031-8-8-8h-16c-4.417969 0-8 3.582031-8 8s3.582031 8 8 8zm0 0"/><path d="m56 336h-16c-4.417969 0-8 3.582031-8 8s3.582031 8 8 8h16c4.417969 0 8-3.582031 8-8s-3.582031-8-8-8zm0 0"/><path d="m208 336h-120c-4.417969 0-8 3.582031-8 8s3.582031 8 8 8h120c4.417969 0 8-3.582031 8-8s-3.582031-8-8-8zm0 0"/><path d="m456 0h-200c-5.921875.0195312-11.625 2.246094-16 6.238281-4.375-3.992187-10.078125-6.2187498-16-6.238281h-200c-13.253906 0-24 10.746094-24 24v336c0 13.253906 10.746094 24 24 24h200c5.921875-.019531 11.625-2.246094 16-6.238281 4.375 3.992187 10.078125 6.21875 16 6.238281h200c13.253906 0 24-10.746094 24-24v-336c0-13.253906-10.746094-24-24-24zm-176 288c4.417969 0 8-3.582031 8-8v-16h16v16c0 4.417969 3.582031 8 8 8s8-3.582031 8-8v-16h16v16c0 4.417969 3.582031 8 8 8s8-3.582031 8-8v-16h16v16c0 4.417969 3.582031 8 8 8s8-3.582031 8-8v-16h32v16c0 4.417969 3.582031 8 8 8s8-3.582031 8-8v-16h32v40h-216v-40h24v16c0 4.417969 3.582031 8 8 8zm-264-264c0-4.417969 3.582031-8 8-8h200c4.417969 0 8 3.582031 8 8v224h-216zm40 264c4.417969 0 8-3.582031 8-8v-16h32v16c0 4.417969 3.582031 8 8 8s8-3.582031 8-8v-16h16v16c0 4.417969 3.582031 8 8 8s8-3.582031 8-8v-16h16v16c0 4.417969 3.582031 8 8 8s8-3.582031 8-8v-16h16v16c0 4.417969 3.582031 8 8 8s8-3.582031 8-8v-16h24v40h-216v-40h32v16c0 4.417969 3.582031 8 8 8zm168 80h-200c-4.417969 0-8-3.582031-8-8v-40h216v40c0 4.417969-3.582031 8-8 8zm240-8c0 4.417969-3.582031 8-8 8h-200c-4.417969 0-8-3.582031-8-8v-40h216zm-216-112v-224c0-4.417969 3.582031-8 8-8h200c4.417969 0 8 3.582031 8 8v224zm0 0"/><path d="m352 56c-48.601562 0-88 39.398438-88 88s39.398438 88 88 88 88-39.398438 88-88c-.058594-48.578125-39.421875-87.941406-88-88zm0 160c-39.765625 0-72-32.234375-72-72s32.234375-72 72-72 72 32.234375 72 72c-.042969 39.746094-32.253906 71.957031-72 72zm0 0"/><path d="m352 106.519531c-20.699219 0-37.480469 16.78125-37.480469 37.480469s16.78125 37.480469 37.480469 37.480469 37.480469-16.78125 37.480469-37.480469c-.027344-20.6875-16.792969-37.453125-37.480469-37.480469zm0 58.960938c-11.863281 0-21.480469-9.617188-21.480469-21.480469s9.617188-21.480469 21.480469-21.480469 21.480469 9.617188 21.480469 21.480469c-.019531 11.855469-9.625 21.460938-21.480469 21.480469zm0 0"/><path d="m280 48h16c4.417969 0 8-3.582031 8-8s-3.582031-8-8-8h-16c-4.417969 0-8 3.582031-8 8s3.582031 8 8 8zm0 0"/><path d="m440 32h-24c-4.417969 0-8 3.582031-8 8s3.582031 8 8 8h24c4.417969 0 8-3.582031 8-8s-3.582031-8-8-8zm0 0"/><path d="m280 352h16c4.417969 0 8-3.582031 8-8s-3.582031-8-8-8h-16c-4.417969 0-8 3.582031-8 8s3.582031 8 8 8zm0 0"/><path d="m328 352h112c4.417969 0 8-3.582031 8-8s-3.582031-8-8-8h-112c-4.417969 0-8 3.582031-8 8s3.582031 8 8 8zm0 0"/></svg>