<svg height="480pt" viewBox="-32 0 480 480.00135" width="480pt" xmlns="http://www.w3.org/2000/svg"><path d="m384.003906 208h-288c-17.675781 0-32 14.328125-32 32 0 17.675781 14.324219 32 32 32h16v181.273438l4.847656 2.078124c39.207032 15.644532 80.941407 23.996094 123.152344 24.648438 42.207032-.652344 83.941406-9.003906 123.148438-24.648438l4.851562-2.078124v-181.273438h16c17.671875 0 32-14.324219 32-32 0-17.671875-14.328125-32-32-32zm-32 161.65625c-36.761718 8.515625-74.28125 13.320312-112 14.34375-37.722656-1.023438-75.242187-5.828125-112-14.34375v-47.582031c36.773438 8.367187 74.292969 13.035156 112 13.925781 37.703125-.890625 75.222656-5.558594 112-13.925781zm-112 94.34375c-38.28125-.730469-76.15625-7.980469-112-21.4375v-56.496094c36.769532 8.382813 74.292969 13.050782 112 13.933594 37.703125-.882812 75.226563-5.550781 112-13.933594v56.496094c-35.839844 13.476562-73.71875 20.730469-112 21.4375zm112-158.335938c-36.761718 8.511719-74.28125 13.316407-112 14.335938-37.71875-1.019531-75.242187-5.824219-112-14.335938v-33.664062h224zm32-49.664062h-288c-8.839844 0-16-7.160156-16-16 0-8.835938 7.160156-16 16-16h288c8.835938 0 16 7.164062 16 16 0 8.839844-7.164062 16-16 16zm0 0"/><path d="m160.003906 195.3125 35.308594-35.3125-152.6875-152.6875c-9.75-9.75-25.558594-9.75-35.3125 0-9.75 9.753906-9.75 25.5625 0 35.3125zm12.6875-35.3125-12.6875 12.6875-20.691406-20.6875 12.691406-12.6875zm-156.6875-135.03125c-.003906-3.628906 2.179688-6.902344 5.535156-8.289062 3.351563-1.390626 7.210938-.621094 9.773438 1.945312l109.378906 109.375-12.6875 12.6875-109.378906-109.375c-1.675781-1.6875-2.617188-3.964844-2.621094-6.34375zm0 0"/><path d="m324.425781 416.839844c-.304687.160156-30.929687 15.160156-84.421875 15.160156-4.421875 0-8 3.582031-8 8s3.578125 8 8 8c57.230469 0 90.199219-16.160156 91.574219-16.796875 3.953125-1.976563 5.558594-6.785156 3.582031-10.738281-1.972656-3.953125-6.78125-5.558594-10.734375-3.582032zm0 0"/><path d="m208.003906 432h-8c-4.421875 0-8 3.582031-8 8s3.578125 8 8 8h8c4.417969 0 8-3.582031 8-8s-3.582031-8-8-8zm0 0"/><path d="m296.003906 144c0 4.417969 3.578125 8 8 8 17.671875 0 32 14.328125 32 32 0 4.417969 3.578125 8 8 8 4.417969 0 8-3.582031 8-8 0-17.671875 14.324219-32 32-32 4.417969 0 8-3.582031 8-8s-3.582031-8-8-8c-17.675781 0-32-14.324219-32-32 0-4.417969-3.582031-8-8-8-4.421875 0-8 3.582031-8 8 0 17.675781-14.328125 32-32 32-4.421875 0-8 3.582031-8 8zm48-13.519531c3.558594 5.363281 8.15625 9.960937 13.519532 13.519531-5.363282 3.5625-9.960938 8.160156-13.519532 13.519531-3.5625-5.359375-8.160156-9.957031-13.523437-13.519531 5.363281-3.558594 9.960937-8.15625 13.523437-13.519531zm0 0"/><path d="m304.003906 64c-13.257812 0-24-10.742188-24-24 0-4.417969-3.582031-8-8-8-4.421875 0-8 3.582031-8 8 0 13.257812-10.746094 24-24 24-4.421875 0-8 3.582031-8 8s3.578125 8 8 8c13.253906 0 24 10.746094 24 24 0 4.417969 3.578125 8 8 8 4.417969 0 8-3.582031 8-8 0-13.253906 10.742188-24 24-24 4.417969 0 8-3.582031 8-8s-3.582031-8-8-8zm-32 16.25c-2.332031-3.140625-5.113281-5.917969-8.25-8.25 3.136719-2.328125 5.917969-5.109375 8.25-8.246094 2.328125 3.136719 5.109375 5.917969 8.246094 8.246094-3.136719 2.332031-5.917969 5.109375-8.246094 8.25zm0 0"/></svg>