<svg height="480pt" viewBox="0 0 480 480.66338" width="480pt" xmlns="http://www.w3.org/2000/svg"><path d="m475.042969 177.382812c-48.984375-22.445312-122.402344-29.917968-187.945313-22.589843 2.019532-40.964844 1.300782-82.015625-2.160156-122.882813-.257812-2.832031-2-5.3125-4.574219-6.519531-73.195312-33.855469-201.554687-33.855469-274.714843 0-2.710938 1.257813-4.496094 3.917969-4.632813 6.90625-.328125 7.277344-7.566406 178.878906 33.746094 221.902344 26.796875 27.328125 57.179687 50.894531 90.3125 70.058593 5.980469 3 12.597656 4.511719 19.289062 4.398438 6.761719.082031 13.457031-1.371094 19.582031-4.25 11.152344-5.699219 21.976563-12.027344 32.417969-18.949219 4.367188 41.808594 13.230469 82.671875 30.78125 100.800781 27.105469 27.351563 57.78125 50.914063 91.199219 70.046876 6.035156 2.984374 12.703125 4.476562 19.433594 4.351562 6.804687.078125 13.539062-1.367188 19.710937-4.230469 23.671875-11.671875 57.433594-38.5625 88.121094-70.167969 41.734375-43.035156 34.398437-214.648437 34.097656-221.929687-.125-3.007813-1.929687-5.691406-4.664062-6.945313zm-318.195313 132.671876c-7.679687 3.425781-16.441406 3.472656-24.160156.128906-31.695312-18.347656-60.761719-40.90625-86.398438-67.0625-29.359374-30.601563-31.335937-153.96875-29.488281-205.175782 67.769531-29.042968 184.9375-29.007812 252.601563.085938 3.175781 39.554688 3.683594 79.28125 1.519531 118.90625-15.71875 2.320312-31.246094 5.796875-46.457031 10.398438-26.015625-38.121094-73.976563-38.679688-76.101563-38.679688-.921875 0-92 1.097656-92 96 0 3.625 2.4375 6.796875 5.941407 7.726562.671874.183594 1.363281.273438 2.058593.273438 2.863281.003906 5.511719-1.519531 6.941407-4 17.199218-25.582031 46.234374-40.65625 77.058593-40 15.382813-.105469 30.558594 3.574219 44.191407 10.710938-.410157 18.808593-.539063 52.578124 2.152343 88-12.121093 8.367187-24.765625 15.945312-37.859375 22.6875zm40.800782-132.671876c-1.933594.894532-3.429688 2.527344-4.160157 4.527344-14.230469-6.207031-29.601562-9.359375-45.125-9.253906-26.941406-.441406-53.058593 9.269531-73.171875 27.199219 13.457032-54.222657 70.449219-55.199219 73.171875-55.199219.414063 0 38.351563.433594 60.316407 28.207031-3.75 1.449219-7.519532 2.914063-11 4.519531zm236.472656 217.671876c-29.496094 30.402343-61.601563 56.066406-83.695313 66.953124-7.808593 3.445313-16.699219 3.492188-24.542969.128907-31.984374-18.324219-61.34375-40.890625-87.28125-67.082031-29.664062-30.589844-31.664062-153.910157-29.800781-205.117188 68.425781-29.050781 186.703125-29.042969 255.121094 0 1.863281 51.230469-.121094 174.550781-29.800781 205.117188zm0 0"/><path d="m428.761719 297.976562c-2.867188-1.890624-6.621094-1.738281-9.328125.375-85.769532 66.984376-162.640625 2.984376-165.871094.222657-2.660156-2.269531-6.480469-2.550781-9.445312-.695313-2.960938 1.855469-4.375 5.417969-3.492188 8.800782 1.257812 4.816406 31.632812 117.976562 95.738281 117.976562 64.101563 0 94.476563-113.160156 95.734375-117.976562.867188-3.316407-.472656-6.816407-3.335937-8.703126zm-92.398438 110.679688c-34.777343 0-60.730469-50.054688-73.488281-84.800781 45.136719 27.085937 101.484375 27.277343 146.804688.496093-12.796876 34.703126-38.65625 84.304688-73.316407 84.304688zm0 0"/><path d="m352.363281 272.65625h72c2.527344 0 4.90625-1.195312 6.414063-3.222656 1.511718-2.027344 1.972656-4.652344 1.246094-7.074219-1.324219-4.4375-13.734376-43.449219-38.847657-45.597656-16.628906-1.488281-32.335937 13.0625-48 44.328125-1.234375 2.480468-1.097656 5.429687.367188 7.785156 1.460937 2.359375 4.042969 3.789062 6.820312 3.78125zm39.429688-40c8.328125.710938 16.152343 13.160156 20.992187 24h-46.976562c9.519531-16 18.640625-24.511719 25.984375-24zm0 0"/><path d="m248.363281 272.65625h72c2.527344 0 4.90625-1.195312 6.414063-3.222656 1.511718-2.027344 1.972656-4.652344 1.246094-7.074219-1.324219-4.4375-13.734376-43.449219-38.847657-45.597656-16.6875-1.488281-32.335937 13.0625-48 44.328125-1.234375 2.480468-1.097656 5.429687.367188 7.785156 1.460937 2.359375 4.042969 3.789062 6.820312 3.78125zm39.429688-40c8.328125.710938 16.152343 13.160156 20.992187 24h-46.976562c9.519531-16 18.632812-24.511719 25.984375-24zm0 0"/><path d="m160.363281 112.65625h72c2.527344 0 4.90625-1.195312 6.414063-3.222656 1.511718-2.027344 1.972656-4.652344 1.246094-7.074219-1.324219-4.4375-13.734376-43.449219-38.847657-45.597656-16.613281-1.480469-32.335937 13.0625-48 44.328125-1.234375 2.480468-1.097656 5.429687.367188 7.785156 1.460937 2.359375 4.042969 3.789062 6.820312 3.78125zm39.429688-40c8.328125.710938 16.152343 13.160156 20.992187 24h-46.976562c9.519531-16 18.671875-24.511719 25.984375-24zm0 0"/><path d="m128.363281 112.65625c2.527344 0 4.90625-1.195312 6.414063-3.222656 1.511718-2.027344 1.972656-4.652344 1.246094-7.074219-1.324219-4.4375-13.734376-43.449219-38.847657-45.597656-16.671875-1.480469-32.335937 13.0625-48 44.328125-1.234375 2.480468-1.097656 5.429687.367188 7.785156 1.460937 2.359375 4.042969 3.789062 6.820312 3.78125zm-32.570312-40c8.328125.710938 16.152343 13.160156 20.992187 24h-46.976562c9.519531-16 18.664062-24.511719 25.984375-24zm0 0"/></svg>