<svg height="480pt" viewBox="0 -28 480 480" width="480pt" xmlns="http://www.w3.org/2000/svg"><path d="m416 0c-4.816406.0195312-9.5625 1.15625-13.863281 3.320312l-380.03125 92.910157c-.582031.136719-1.148438.34375-1.679688.609375-3.410156 1.710937-20.425781 12.761718-20.425781 63.160156s17.015625 61.449219 20.425781 63.199219c.53125.269531 1.097657.472656 1.679688.609375l49.894531 12.191406v140c0 26.507812 21.492188 48 48 48s48-21.492188 48-48v-116.558594l234.136719 57.238282c4.300781 2.164062 9.046875 3.300781 13.863281 3.320312 41.601562 0 64-82.398438 64-160s-22.398438-160-64-160zm-264 360h-64v-56h64zm-64-72v-48.121094l64 15.648438v32.472656zm32 120c-17.671875 0-32-14.328125-32-32h64c0 17.671875-14.328125 32-32 32zm-104-248c0-36.257812 9.449219-46.816406 11.28125-48.566406l353.132812-86.328125c-11.902343 21.71875-19.734374 45.429687-23.117187 69.964843v.152344c-.804687 4.800782-1.519531 9.683594-2.144531 14.648438-.113282.863281-.207032 1.730468-.3125 2.585937-.507813 4.226563-.945313 8.496094-1.3125 12.800781-.09375 1.125-.183594 2.261719-.269532 3.390626-.347656 4.378906-.613281 8.773437-.800781 13.183593 0 .800781-.082031 1.601563-.113281 2.398438-.230469 5.28125-.34375 10.539062-.34375 15.769531 0 6.742188.183594 13.527344.519531 20.296875 0 .421875 0 .847656.054688 1.261719.335937 6.359375.824219 12.671875 1.464843 18.945312.074219.695313.136719 1.390625.207032 2.082032.664062 6.238281 1.464844 12.371093 2.402344 18.398437l.191406 1.191406c3.273437 25.480469 11.261718 50.128907 23.550781 72.6875l-292.390625-71.457031v-39.40625c0-4.417969-3.582031-8-8-8s-8 3.582031-8 8v35.496094l-16-3.902344v-71.59375c0-4.417969-3.582031-8-8-8s-8 3.582031-8 8v67.679688l-12.558594-3.070313c-2.363281-2.210937-11.441406-13.066406-11.441406-48.609375zm352.265625-14.296875c.117187-3.238281.300781-6.445313.496094-9.65625.070312-1.191406.117187-2.398437.199219-3.566406.605468-8.699219 1.503906-17.234375 2.6875-25.601563 16.398437 8.160156 28.351562 32.953125 28.351562 61.121094 0 26.625-10.710938 50.398438-25.9375 59.734375-3-16.183594-4.871094-32.554687-5.597656-49 0-.511719-.066406-1.007813-.082032-1.519531-.253906-5.699219-.382812-11.4375-.382812-17.214844 0-4.855469.105469-9.601562.265625-14.296875zm47.734375 158.296875c-1.1875-.039062-2.363281-.226562-3.503906-.558594-1.101563-.324218-2.175782-.746094-3.199219-1.265625-11.960937-5.847656-23.871094-26.769531-31.816406-58.253906 22.695312-10.539063 38.519531-40.882813 38.519531-75.921875 0-36.886719-17.480469-68.296875-41.734375-77.3125 7.65625-39.550781 21.308594-66.152344 35.039063-72.863281 1.023437-.519531 2.097656-.941407 3.199218-1.265625 1.136719-.332032 2.3125-.519532 3.496094-.558594 22.703125 0 48 59.136719 48 144s-25.296875 144-48 144zm0 0"/></svg>