<svg height="480pt" viewBox="-28 0 480 480" width="480pt" xmlns="http://www.w3.org/2000/svg"><path d="m288 256h-8v-200c-.035156-30.914062-25.085938-55.9648438-56-56h-16c-30.914062.0351562-55.964844 25.085938-56 56v200h-8c-13.253906 0-24 10.746094-24 24s10.746094 24 24 24h16.550781l6.402344 89.710938c.933594 12.542968 11.367187 22.253906 23.941406 22.289062h1.105469v56c0 4.417969 3.582031 8 8 8h32c4.417969 0 8-3.582031 8-8v-56h1.105469c12.574219-.039062 23-9.75 23.933593-22.289062l6.410157-89.710938h16.550781c13.253906 0 24-10.746094 24-24s-10.746094-24-24-24zm-96-236.609375v12.609375c0 4.417969 3.582031 8 8 8s8-3.582031 8-8v-16h16v16c0 4.417969 3.582031 8 8 8s8-3.582031 8-8v-12.609375c14.558594 6.355469 23.980469 20.722656 24 36.609375h-32c-4.417969 0-8 3.582031-8 8s3.582031 8 8 8h32v16h-32c-4.417969 0-8 3.582031-8 8s3.582031 8 8 8h32v16h-32c-4.417969 0-8 3.582031-8 8s3.582031 8 8 8h32v16h-32c-4.417969 0-8 3.582031-8 8s3.582031 8 8 8h32v40h-96v-40h32c4.417969 0 8-3.582031 8-8s-3.582031-8-8-8h-32v-16h32c4.417969 0 8-3.582031 8-8s-3.582031-8-8-8h-32v-16h32c4.417969 0 8-3.582031 8-8s-3.582031-8-8-8h-32v-16h32c4.417969 0 8-3.582031 8-8s-3.582031-8-8-8h-32c.019531-15.886719 9.441406-30.253906 24-36.609375zm-24 204.609375h96v32h-96zm56 240h-16v-48h16zm64-176h-56c-4.417969 0-8 3.582031-8 8s3.582031 8 8 8h23.40625l-6.328125 88.566406c-.296875 4.195313-3.792969 7.445313-8 7.433594h-50.183594c-4.203125.011719-7.699219-3.238281-8-7.433594l-6.894531-97.132812c-.296875-4.195313-3.792969-7.445313-8-7.433594h-24c-4.417969 0-8-3.582031-8-8s3.582031-8 8-8h144c4.417969 0 8 3.582031 8 8s-3.582031 8-8 8zm0 0"/><path d="m205.679688 290.320312-1.199219-.960937c-.445313-.300781-.929688-.542969-1.441407-.71875-.453124-.230469-.9375-.394531-1.4375-.480469-1.558593-.332031-3.183593-.164062-4.640624.480469-2.011719.726563-3.59375 2.308594-4.320313 4.320313-1.277344 2.976562-.613281 6.429687 1.679687 8.71875 2.289063 2.292968 5.742188 2.957031 8.71875 1.679687.96875-.40625 1.863282-.972656 2.640626-1.679687 1.503906-1.503907 2.339843-3.550782 2.320312-5.679688.027344-1.050781-.191406-2.089844-.640625-3.039062-.40625-.96875-.972656-1.863282-1.679687-2.640626zm0 0"/><path d="m104 169.472656v-92.578125l-88 29.335938v79.242187c-11.019531 3.894532-17.632812 15.164063-15.65625 26.683594 1.976562 11.523438 11.96875 19.941406 23.65625 19.941406s21.679688-8.417968 23.65625-19.941406c1.976562-11.519531-4.636719-22.789062-15.65625-26.683594v-35.710937l56-18.664063v38.398438c-11.019531 3.894531-17.632812 15.164062-15.65625 26.6875 1.976562 11.519531 11.96875 19.941406 23.65625 19.941406s21.679688-8.421875 23.65625-19.941406c1.976562-11.523438-4.636719-22.792969-15.65625-26.6875zm-80 46.527344c-4.417969 0-8-3.582031-8-8s3.582031-8 8-8 8 3.582031 8 8-3.582031 8-8 8zm8-83.097656v-15.132813l56-18.664062v15.132812zm64 67.097656c-4.417969 0-8-3.582031-8-8s3.582031-8 8-8 8 3.582031 8 8-3.582031 8-8 8zm0 0"/><path d="m336 337.136719c-15.601562 4.027343-25.777344 19.03125-23.746094 35.015625s15.632813 27.96875 31.746094 27.96875 29.714844-11.984375 31.746094-27.96875-8.144532-30.988282-23.746094-35.015625v-35.863281l72-30.875v-58.535157l-88 37.738281zm16-77 56-24v23.726562l-56 24zm8 107.863281c0 8.835938-7.164062 16-16 16s-16-7.164062-16-16 7.164062-16 16-16 16 7.164062 16 16zm0 0"/></svg>