<svg height="480pt" viewBox="-52 0 480 480" width="480pt" xmlns="http://www.w3.org/2000/svg"><path d="m248 32h-208c-4.417969 0-8 3.582031-8 8v64c0 4.417969 3.582031 8 8 8h208c4.417969 0 8-3.582031 8-8v-64c0-4.417969-3.582031-8-8-8zm-8 64h-192v-48h192zm0 0"/><path d="m40 240h80c4.417969 0 8-3.582031 8-8v-96c0-4.417969-3.582031-8-8-8h-80c-4.417969 0-8 3.582031-8 8v96c0 4.417969 3.582031 8 8 8zm8-96h64v80h-64zm0 0"/><path d="m248 128h-96c-4.417969 0-8 3.582031-8 8s3.582031 8 8 8h96c4.417969 0 8-3.582031 8-8s-3.582031-8-8-8zm0 0"/><path d="m248 160h-96c-4.417969 0-8 3.582031-8 8s3.582031 8 8 8h96c4.417969 0 8-3.582031 8-8s-3.582031-8-8-8zm0 0"/><path d="m248 192h-96c-4.417969 0-8 3.582031-8 8s3.582031 8 8 8h96c4.417969 0 8-3.582031 8-8s-3.582031-8-8-8zm0 0"/><path d="m248 224h-96c-4.417969 0-8 3.582031-8 8s3.582031 8 8 8h96c4.417969 0 8-3.582031 8-8s-3.582031-8-8-8zm0 0"/><path d="m40 272h120c4.417969 0 8-3.582031 8-8s-3.582031-8-8-8h-120c-4.417969 0-8 3.582031-8 8s3.582031 8 8 8zm0 0"/><path d="m248 256h-56c-4.417969 0-8 3.582031-8 8s3.582031 8 8 8h56c4.417969 0 8-3.582031 8-8s-3.582031-8-8-8zm0 0"/><path d="m248 288h-208c-4.417969 0-8 3.582031-8 8v96c0 4.417969 3.582031 8 8 8h208c4.417969 0 8-3.582031 8-8v-96c0-4.417969-3.582031-8-8-8zm-8 96h-192v-80h192zm0 0"/><path d="m72 416h-32c-4.417969 0-8 3.582031-8 8s3.582031 8 8 8h32c4.417969 0 8-3.582031 8-8s-3.582031-8-8-8zm0 0"/><path d="m248 416h-144c-4.417969 0-8 3.582031-8 8s3.582031 8 8 8h144c4.417969 0 8-3.582031 8-8s-3.582031-8-8-8zm0 0"/><path d="m368 32h-80v-24c0-4.417969-3.582031-8-8-8h-272c-4.417969 0-8 3.582031-8 8v416c.0351562 30.914062 25.085938 55.964844 56 56h280c22.082031-.027344 39.972656-17.917969 40-40v-400c0-4.417969-3.582031-8-8-8zm-352 392v-408h256v448h-216c-22.082031-.027344-39.972656-17.917969-40-40zm344 16c0 13.253906-10.746094 24-24 24h-48v-416h72zm0 0"/></svg>