<svg height="480pt" viewBox="0 -44 480 480" width="480pt" xmlns="http://www.w3.org/2000/svg"><path d="m152 232c4.417969 0 8-3.582031 8-8v-56c0-4.417969-3.582031-8-8-8s-8 3.582031-8 8v56c0 4.417969 3.582031 8 8 8zm0 0"/><path d="m152 280c4.417969 0 8-3.582031 8-8v-16c0-4.417969-3.582031-8-8-8s-8 3.582031-8 8v16c0 4.417969 3.582031 8 8 8zm0 0"/><path d="m472 232h-96c-4.417969 0-8 3.582031-8 8s3.582031 8 8 8h96c4.417969 0 8-3.582031 8-8s-3.582031-8-8-8zm0 0"/><path d="m376 200c1.335938 0 2.652344-.335938 3.824219-.976562l88-48c3.878906-2.117188 5.308593-6.976563 3.191406-10.855469-2.117187-3.878907-6.976563-5.308594-10.855469-3.191407l-88 48c-3.214844 1.75-4.828125 5.460938-3.921875 9.003907.90625 3.546875 4.101563 6.023437 7.761719 6.019531zm0 0"/><path d="m464 344c3.660156.003906 6.855469-2.472656 7.761719-6.019531.90625-3.542969-.707031-7.253907-3.921875-9.003907l-88-48c-3.878906-2.117187-8.738282-.6875-10.855469 3.191407-2.117187 3.878906-.6875 8.738281 3.191406 10.855469l88 48c1.171875.640624 2.488281.976562 3.824219.976562zm0 0"/><path d="m360 64c-13.253906 0-24-10.746094-24-24 0-4.417969-3.582031-8-8-8s-8 3.582031-8 8c0 13.253906-10.746094 24-24 24-4.417969 0-8 3.582031-8 8s3.582031 8 8 8c13.253906 0 24 10.746094 24 24 0 4.417969 3.582031 8 8 8s8-3.582031 8-8c0-13.253906 10.746094-24 24-24 4.417969 0 8-3.582031 8-8s-3.582031-8-8-8zm-32 16.246094c-2.332031-3.136719-5.109375-5.914063-8.246094-8.246094 3.136719-2.332031 5.914063-5.109375 8.246094-8.246094 2.332031 3.136719 5.109375 5.914063 8.246094 8.246094-3.136719 2.332031-5.914063 5.109375-8.246094 8.246094zm0 0"/><path d="m8 312h104v1.824219c.050781 16.660156 10.378906 31.558593 25.960938 37.457031l107.199218 40.214844c.910156.335937 1.871094.507812 2.839844.503906 4.417969 0 8-3.582031 8-8v-39.496094c43.355469-16.527344 72-58.105468 72-104.503906s-28.644531-87.976562-72-104.503906v-47.496094c0-2.699219-1.363281-5.214844-3.621094-6.691406-2.257812-1.476563-5.105468-1.714844-7.578125-.636719l-108.800781 47.617187c-14.570312 6.359376-23.992188 20.742188-24 36.640626v3.070312h-24v-160c0-4.417969-3.582031-8-8-8h-32c-4.417969 0-8 3.582031-8 8v160h-32c-4.417969 0-8 3.582031-8 8v128c0 4.417969 3.582031 8 8 8zm232-211.769531v272.226562l-32-12v-246.226562zm72 139.769531c.082031 37.558594-21.824219 71.6875-56 87.257812v-174.515624c34.175781 15.570312 56.082031 49.699218 56 87.257812zm-184-75.070312c.003906-9.539063 5.65625-18.171876 14.398438-21.984376l49.601562-21.714843v233.226562l-48.425781-18.160156c-9.347657-3.539063-15.542969-12.476563-15.574219-22.472656zm-72-148.929688h16v224c0 4.417969-3.582031 8-8 8s-8-3.582031-8-8zm-40 168h24v56c0 13.253906 10.746094 24 24 24s24-10.746094 24-24v-56h24v112h-96zm0 0"/></svg>