<svg height="480pt" viewBox="0 -31 480 479" width="480pt" xmlns="http://www.w3.org/2000/svg"><path d="m416 200.5v-88h-32c-8.835938 0-16-7.164062-16-16s7.164062-16 16-16h32v-80h-416v80h32c8.835938 0 16 7.164062 16 16s-7.164062 16-16 16h-32v88zm-16-184v48h-16c-17.671875 0-32 14.328125-32 32s14.328125 32 32 32h16v56h-120v-168zm-384 168v-56h16c17.671875 0 32-14.328125 32-32s-14.328125-32-32-32h-16v-48h248v168zm0 0"/><path d="m88 48.5h152c4.417969 0 8-3.582031 8-8s-3.582031-8-8-8h-152c-4.417969 0-8 3.582031-8 8s3.582031 8 8 8zm0 0"/><path d="m88 80.5h88c4.417969 0 8-3.582031 8-8s-3.582031-8-8-8h-88c-4.417969 0-8 3.582031-8 8s3.582031 8 8 8zm0 0"/><path d="m240 64.5h-32c-4.417969 0-8 3.582031-8 8s3.582031 8 8 8h32c4.417969 0 8-3.582031 8-8s-3.582031-8-8-8zm0 0"/><path d="m208 96.5h-120c-4.417969 0-8 3.582031-8 8s3.582031 8 8 8h120c4.417969 0 8-3.582031 8-8s-3.582031-8-8-8zm0 0"/><path d="m136 128.5h-48c-4.417969 0-8 3.582031-8 8s3.582031 8 8 8h48c4.417969 0 8-3.582031 8-8s-3.582031-8-8-8zm0 0"/><path d="m304 48.5h72c4.417969 0 8-3.582031 8-8s-3.582031-8-8-8h-72c-4.417969 0-8 3.582031-8 8s3.582031 8 8 8zm0 0"/><path d="m448 296.5h32v-80h-152v200h152v-88h-32c-8.835938 0-16-7.164062-16-16s7.164062-16 16-16zm0 48h16v56h-120v-168h120v48h-16c-17.671875 0-32 14.328125-32 32s14.328125 32 32 32zm0 0"/><path d="m120 264.5h152c4.417969 0 8-3.582031 8-8s-3.582031-8-8-8h-152c-4.417969 0-8 3.582031-8 8s3.582031 8 8 8zm0 0"/><path d="m120 296.5h88c4.417969 0 8-3.582031 8-8s-3.582031-8-8-8h-88c-4.417969 0-8 3.582031-8 8s3.582031 8 8 8zm0 0"/><path d="m272 280.5h-32c-4.417969 0-8 3.582031-8 8s3.582031 8 8 8h32c4.417969 0 8-3.582031 8-8s-3.582031-8-8-8zm0 0"/><path d="m120 328.5h120c4.417969 0 8-3.582031 8-8s-3.582031-8-8-8h-120c-4.417969 0-8 3.582031-8 8s3.582031 8 8 8zm0 0"/><path d="m120 360.5h48c4.417969 0 8-3.582031 8-8s-3.582031-8-8-8h-48c-4.417969 0-8 3.582031-8 8s3.582031 8 8 8zm0 0"/><path d="m448 256.5c0-4.417969-3.582031-8-8-8h-72c-4.417969 0-8 3.582031-8 8s3.582031 8 8 8h72c4.417969 0 8-3.582031 8-8zm0 0"/><path d="m64 328.5h-32v88h280v-200h-280v80h32c8.835938 0 16 7.164062 16 16s-7.164062 16-16 16zm0-48h-16v-48h248v168h-248v-56h16c17.671875 0 32-14.328125 32-32s-14.328125-32-32-32zm0 0"/></svg>