<svg height="480pt" viewBox="-96 0 480 480" width="480pt" xmlns="http://www.w3.org/2000/svg"><path d="m56 432h-8c-4.417969 0-8 3.582031-8 8v32c0 4.417969 3.582031 8 8 8h208c4.417969 0 8-3.582031 8-8v-32c0-4.417969-3.582031-8-8-8h-8v-56c0-4.417969-3.582031-8-8-8h-55.199219c3.328125-34.855469 15.199219-160.128906 15.199219-172.527344-.164062-2.027344.210938-4.066406 1.078125-5.90625 5.964844.21875 11.757813-1.984375 16.074219-6.101562 4.316406-4.117188 6.785156-9.804688 6.847656-15.769532v-55.542968c0-20.90625-15.839844-25.488282-37.777344-31.832032-3.683594-.894531-7.195312-2.386718-10.398437-4.417968 10.191406-9.167969 16.058593-22.195313 16.175781-35.902344 0-22.089844-17.910156-40-40-40s-40 17.910156-40 40c.121094 13.710938 5.996094 26.738281 16.191406 35.902344-3.203125 2.03125-6.714844 3.523437-10.398437 4.417968-21.953125 6.34375-37.792969 10.925782-37.792969 31.832032v55.542968c.054688 5.972657 2.519531 11.664063 6.835938 15.789063 4.316406 4.125 10.117187 6.332031 16.085937 6.117187.867187 1.839844 1.242187 3.875 1.078125 5.902344 0 12.398438 11.871094 137.671875 15.199219 172.527344h-55.199219c-4.417969 0-8 3.582031-8 8zm192 32h-192v-16h192zm-128-268.527344c0-17.3125-10.472656-21.886718-16-21.886718-5.144531 0-7.832031-2.035157-8-5.890626v-55.542968c0-7.199219.960938-9.152344 26.222656-16.472656 13.074219-3.777344 20.433594-9.078126 22.503906-16.207032 1.292969-4.457031.265626-9.261718-2.734374-12.800781-.417969-.480469-.894532-.902344-1.417969-1.265625-7.746094-6.1875-12.351563-15.492188-12.574219-25.40625 0-13.253906 10.746094-24 24-24s24 10.746094 24 24c-.136719 9.945312-4.757812 19.292969-12.574219 25.441406-.523437.359375-1 .785156-1.417969 1.261719-3 3.539063-4.027343 8.34375-2.734374 12.800781 2.070312 7.128906 9.429687 12.433594 22.503906 16.207032 25.261718 7.289062 26.222656 9.257812 26.222656 16.441406v55.542968c0 1.777344-.800781 5.890626-8 5.890626-5.527344 0-16 4.574218-16 21.886718 0 10.535156-10.398438 121.917969-15.273438 172.527344h-33.453124c-4.832032-50.609375-15.273438-161.992188-15.273438-172.527344zm-48 188.527344h160v48h-160zm0 0"/><path d="m208 400h-112c-4.417969 0-8 3.582031-8 8s3.582031 8 8 8h112c4.417969 0 8-3.582031 8-8s-3.582031-8-8-8zm0 0"/><path d="m256 208h16v16h-16zm0 0"/><path d="m256 240h16v16h-16zm0 0"/><path d="m240 224h16v16h-16zm0 0"/><path d="m272 224h16v16h-16zm0 0"/><path d="m16 80h16v16h-16zm0 0"/><path d="m16 112h16v16h-16zm0 0"/><path d="m0 96h16v16h-16zm0 0"/><path d="m32 96h16v16h-16zm0 0"/><path d="m264 136h16v16h-16zm0 0"/><path d="m56 24h16v16h-16zm0 0"/></svg>