<svg height="480pt" viewBox="0 0 480 480" width="480pt" xmlns="http://www.w3.org/2000/svg"><path d="m216 40c-.640625 0-64 .800781-64 72 0 4.417969 3.582031 8 8 8s8-3.582031 8-8c0-54.945312 46.023438-56 48-56 4.417969 0 8-3.582031 8-8s-3.582031-8-8-8zm0 0"/><path d="m248 56h8c4.417969 0 8-3.582031 8-8s-3.582031-8-8-8h-8c-4.417969 0-8 3.582031-8 8s3.582031 8 8 8zm0 0"/><path d="m240 344c-4.417969 0-8 3.582031-8 8v120c0 4.417969 3.582031 8 8 8s8-3.582031 8-8v-120c0-4.417969-3.582031-8-8-8zm0 0"/><path d="m349.65625 338.34375c-3.140625-3.03125-8.128906-2.988281-11.214844.097656-3.085937 3.085938-3.128906 8.074219-.097656 11.214844l104 104c3.140625 3.03125 8.128906 2.988281 11.214844-.097656 3.085937-3.085938 3.128906-8.074219.097656-11.214844zm0 0"/><path d="m130.34375 338.34375-104 104c-2.078125 2.007812-2.914062 4.984375-2.179688 7.78125.730469 2.796875 2.914063 4.980469 5.710938 5.710938 2.796875.734374 5.773438-.101563 7.78125-2.179688l104-104c3.03125-3.140625 2.988281-8.128906-.097656-11.214844-3.085938-3.085937-8.074219-3.128906-11.214844-.097656zm0 0"/><path d="m429.679688 186.320312c-.777344-.707031-1.671876-1.273437-2.640626-1.679687-1.929687-.882813-4.148437-.882813-6.078124 0-.96875.40625-1.863282.972656-2.640626 1.679687-.722656.765626-1.292968 1.660157-1.679687 2.640626-1.238281 2.980468-.5625 6.410156 1.707031 8.703124 2.273438 2.289063 5.703125 2.992188 8.691406 1.777344.957032-.464844 1.84375-1.058594 2.640626-1.761718.703124-.777344 1.273437-1.671876 1.679687-2.640626.851563-1.9375.851563-4.140624 0-6.078124-.40625-.96875-.972656-1.863282-1.679687-2.640626zm0 0"/><path d="m396.480469 201.359375c-.445313-.300781-.929688-.542969-1.441407-.71875-.453124-.230469-.9375-.394531-1.4375-.480469-1.558593-.332031-3.183593-.164062-4.640624.480469-.96875.40625-1.863282.972656-2.640626 1.679687-1.460937 1.53125-2.289062 3.5625-2.320312 5.679688-.027344 1.050781.191406 2.089844.640625 3.039062.40625.96875.976563 1.863282 1.679687 2.640626 3.15625 3.09375 8.203126 3.09375 11.359376 0 .703124-.777344 1.273437-1.671876 1.679687-2.640626.410156-.960937.628906-1.992187.640625-3.039062-.03125-2.117188-.859375-4.148438-2.320312-5.679688-.378907-.34375-.78125-.664062-1.199219-.960937zm0 0"/><path d="m61.679688 186.320312c-.398438-.320312-.800782-.640624-1.28125-.960937-.40625-.316406-.867188-.558594-1.359376-.71875-.476562-.246094-.988281-.40625-1.519531-.480469-1.53125-.328125-3.128906-.160156-4.558593.480469-2.011719.726563-3.59375 2.308594-4.320313 4.320313-.855469 1.9375-.855469 4.140624 0 6.078124.40625.96875.976563 1.863282 1.679687 2.640626.796876.703124 1.683594 1.296874 2.640626 1.761718.964843.382813 2 .570313 3.039062.558594 2.128906.019531 4.171875-.816406 5.679688-2.320312.703124-.777344 1.273437-1.671876 1.679687-2.640626.851563-1.9375.851563-4.140624 0-6.078124-.40625-.96875-.972656-1.863282-1.679687-2.640626zm0 0"/><path d="m84.960938 200.640625c-.96875.40625-1.863282.972656-2.640626 1.679687-1.460937 1.53125-2.289062 3.5625-2.320312 5.679688.011719 1.046875.230469 2.078125.640625 3.039062.40625.96875.976563 1.863282 1.679687 2.640626 3.15625 3.09375 8.203126 3.09375 11.359376 0 .703124-.777344 1.273437-1.671876 1.679687-2.640626.449219-.949218.667969-1.988281.640625-3.039062-.03125-2.117188-.859375-4.148438-2.320312-5.679688-2.300782-2.269531-5.742188-2.933593-8.71875-1.679687zm0 0"/><path d="m32 336c0 4.417969 3.582031 8 8 8s8-3.582031 8-8c0-13.253906 10.746094-24 24-24 4.417969 0 8-3.582031 8-8s-3.582031-8-8-8c-13.253906 0-24-10.746094-24-24 0-4.417969-3.582031-8-8-8s-8 3.582031-8 8c0 13.253906-10.746094 24-24 24-4.417969 0-8 3.582031-8 8s3.582031 8 8 8c13.253906 0 24 10.746094 24 24zm8-40.246094c2.332031 3.136719 5.109375 5.914063 8.246094 8.246094-3.136719 2.332031-5.914063 5.109375-8.246094 8.246094-2.332031-3.136719-5.109375-5.914063-8.246094-8.246094 3.136719-2.332031 5.914063-5.109375 8.246094-8.246094zm0 0"/><path d="m472 40c-13.253906 0-24-10.746094-24-24 0-4.417969-3.582031-8-8-8s-8 3.582031-8 8c0 13.253906-10.746094 24-24 24-4.417969 0-8 3.582031-8 8s3.582031 8 8 8c13.253906 0 24 10.746094 24 24 0 4.417969 3.582031 8 8 8s8-3.582031 8-8c0-13.253906 10.746094-24 24-24 4.417969 0 8-3.582031 8-8s-3.582031-8-8-8zm-32 16.246094c-2.332031-3.136719-5.109375-5.914063-8.246094-8.246094 3.136719-2.332031 5.914063-5.109375 8.246094-8.246094 2.332031 3.136719 5.109375 5.914063 8.246094 8.246094-3.136719 2.332031-5.914063 5.109375-8.246094 8.246094zm0 0"/><path d="m40 104c0 13.253906 10.746094 24 24 24s24-10.746094 24-24-10.746094-24-24-24-24 10.746094-24 24zm24-8c4.417969 0 8 3.582031 8 8s-3.582031 8-8 8-8-3.582031-8-8 3.582031-8 8-8zm0 0"/><path d="m432 296c0-13.253906-10.746094-24-24-24s-24 10.746094-24 24 10.746094 24 24 24 24-10.746094 24-24zm-32 0c0-4.417969 3.582031-8 8-8s8 3.582031 8 8-3.582031 8-8 8-8-3.582031-8-8zm0 0"/><path d="m376 138.519531v-18.519531c-.074219-66.242188-53.757812-119.9257812-120-120h-32c-66.242188.0742188-119.925781 53.757812-120 120v18.519531c-48.617188 8.351563-104 24.265625-104 53.480469 0 26.265625 47.199219 44.703125 111.703125 54.832031 24.367187 48.789063 73.773437 80.046875 128.296875 81.167969 54.5-1.226562 103.863281-32.453125 128.328125-81.167969 64.472656-10.136719 111.671875-28.566406 111.671875-54.832031 0-29.214844-55.382812-45.128906-104-53.480469zm-256-18.519531c.066406-57.410156 46.589844-103.933594 104-104h32c57.410156.066406 103.933594 46.589844 104 104v58.257812c-13.039062 4.007813-51.769531 13.742188-120 13.742188-67.910156 0-106.886719-9.761719-120-13.761719zm120 192c-44.542969-.929688-85.558594-24.4375-108.871094-62.398438 36.125 4.359376 72.484375 6.496094 108.871094 6.398438 36.382812.097656 72.734375-2.039062 108.855469-6.398438-23.375 37.894532-64.34375 61.378907-108.855469 62.398438zm0-72c-138.785156 0-224-27.953125-224-48 0-7.65625 18.761719-24.9375 88-37.207031v29.207031c-.003906 3.273438 1.988281 6.214844 5.023438 7.433594 1.695312.671875 42.457031 16.566406 130.976562 16.566406s129.28125-15.894531 130.976562-16.566406c3.035157-1.21875 5.027344-4.160156 5.023438-7.433594v-29.207031c69.238281 12.269531 88 29.550781 88 37.207031 0 20.046875-85.214844 48-224 48zm0 0"/></svg>