<svg height="480pt" viewBox="0 0 480.01312 480" width="480pt" xmlns="http://www.w3.org/2000/svg"><path d="m470.582031 176.140625-88 16c-3.804687.691406-6.570312 4.003906-6.570312 7.871094v16h-16v-40c0-4.417969-3.582031-8-8-8h-40.238281c32.269531-21.941407 47.179687-61.859375 37.1875-99.585938-9.988282-37.722656-42.699219-65.03125-81.597657-68.128906-38.902343-3.097656-75.519531 18.695313-91.351562 54.363281-15.828125-35.667968-52.449219-57.460937-91.347657-54.363281-38.902343 3.097656-71.613281 30.40625-81.601562 68.128906-9.988281 37.726563 4.921875 77.644531 37.191406 99.585938h-32.242187c-4.417969 0-8.0000002 3.582031-8.0000002 8v200c0 4.417969 3.5820312 8 8.0000002 8h80v56c0 4.417969 3.582031 8 8 8h48v24c0 4.417969 3.582031 8 8 8h64c4.417969 0 8-3.582031 8-8v-24h48c4.417969 0 8-3.582031 8-8v-56h72c4.417969 0 8-3.582031 8-8v-40h16v16c0 3.867187 2.765625 7.179687 6.570312 7.875l88 16c.472657.085937.949219.128906 1.429688.125 4.417969 0 8-3.582031 8-8v-184c0-2.371094-1.050781-4.621094-2.871094-6.140625-1.824219-1.523438-4.226563-2.15625-6.558594-1.730469zm-210.570312-160.128906c41.976562 0 76 34.027343 76 76 0 41.976562-34.023438 76-76 76-41.972657 0-76-34.023438-76-76 .050781-41.953125 34.046875-75.949219 76-76zm-51.757813 152h-64.480468c14.109374-9.65625 25.269531-23.035157 32.238281-38.648438 6.972656 15.613281 18.132812 28.992188 32.242187 38.648438zm-192.242187-76c0-41.972657 34.027343-76 76-76 41.976562 0 76 34.027343 76 76 0 41.976562-34.023438 76-76 76-41.953125-.046875-75.949219-34.046875-76-76zm192 372h-48v-16h48zm56-32h-160v-16h88c4.417969 0 8-3.582031 8-8s-3.582031-8-8-8h-88v-16h160zm80-64h-328v-184h328zm16-48v-88h16v88zm104 38.402343-72-13.089843v-138.640625l72-13.070313zm0 0"/><path d="m160.011719 312.011719h168v-112h-168zm16-96h136v80h-136zm0 0"/><path d="m144.011719 200.011719h-112v48h112zm-16 32h-80v-16h80zm0 0"/><path d="m56.011719 312.011719c13.257812 0 24-10.742188 24-24 0-13.253907-10.742188-24-24-24-13.253907 0-24 10.746093-24 24 0 13.257812 10.746093 24 24 24zm0-32c4.417969 0 8 3.582031 8 8s-3.582031 8-8 8-8-3.582031-8-8 3.582031-8 8-8zm0 0"/><path d="m96.011719 288.011719c0 13.257812 10.746093 24 24 24 13.257812 0 24-10.742188 24-24 0-13.253907-10.742188-24-24-24-13.253907 0-24 10.746093-24 24zm32 0c0 4.417969-3.582031 8-8 8s-8-3.582031-8-8 3.582031-8 8-8 8 3.582031 8 8zm0 0"/><path d="m248.011719 336.011719h-208c-4.417969 0-8 3.582031-8 8s3.582031 8 8 8h208c4.417969 0 8-3.582031 8-8s-3.582031-8-8-8zm0 0"/><path d="m296.011719 336.011719h-16c-4.417969 0-8 3.582031-8 8s3.582031 8 8 8h16c4.417969 0 8-3.582031 8-8s-3.582031-8-8-8zm0 0"/><path d="m224.011719 416.011719h16c4.417969 0 8-3.582031 8-8s-3.582031-8-8-8h-16c-4.417969 0-8 3.582031-8 8s3.582031 8 8 8zm0 0"/><path d="m260.011719 72.011719c11.046875 0 20-8.953125 20-20 0-11.042969-8.953125-20-20-20-11.042969 0-20 8.957031-20 20 0 11.046875 8.957031 20 20 20zm0-24c2.210937 0 4 1.792969 4 4 0 2.210937-1.789063 4-4 4-2.207031 0-4-1.789063-4-4 0-2.207031 1.792969-4 4-4zm0 0"/><path d="m300.011719 112.011719c11.046875 0 20-8.953125 20-20 0-11.042969-8.953125-20-20-20-11.042969 0-20 8.957031-20 20 0 11.046875 8.957031 20 20 20zm0-24c2.210937 0 4 1.792969 4 4 0 2.210937-1.789063 4-4 4-2.207031 0-4-1.789063-4-4 0-2.207031 1.792969-4 4-4zm0 0"/><path d="m260.011719 112.011719c-11.042969 0-20 8.957031-20 20 0 11.046875 8.957031 20 20 20 11.046875 0 20-8.953125 20-20 0-11.042969-8.953125-20-20-20zm0 24c-2.207031 0-4-1.789063-4-4 0-2.207031 1.792969-4 4-4 2.210937 0 4 1.792969 4 4 0 2.210937-1.789063 4-4 4zm0 0"/><path d="m240.011719 92.011719c0-11.042969-8.953125-20-20-20-11.042969 0-20 8.957031-20 20 0 11.046875 8.957031 20 20 20 11.046875 0 20-8.953125 20-20zm-24 0c0-2.207031 1.792969-4 4-4 2.210937 0 4 1.792969 4 4 0 2.210937-1.789063 4-4 4-2.207031 0-4-1.789063-4-4zm0 0"/><path d="m92.011719 72.011719c11.046875 0 20-8.953125 20-20 0-11.042969-8.953125-20-20-20-11.042969 0-20 8.957031-20 20 0 11.046875 8.957031 20 20 20zm0-24c2.210937 0 4 1.792969 4 4 0 2.210937-1.789063 4-4 4-2.207031 0-4-1.789063-4-4 0-2.207031 1.792969-4 4-4zm0 0"/><path d="m152.011719 92.011719c0-11.042969-8.953125-20-20-20-11.042969 0-20 8.957031-20 20 0 11.046875 8.957031 20 20 20 11.046875 0 20-8.953125 20-20zm-20 4c-2.207031 0-4-1.789063-4-4 0-2.207031 1.792969-4 4-4 2.210937 0 4 1.792969 4 4 0 2.210937-1.789063 4-4 4zm0 0"/><path d="m92.011719 112.011719c-11.042969 0-20 8.957031-20 20 0 11.046875 8.957031 20 20 20 11.046875 0 20-8.953125 20-20 0-11.042969-8.953125-20-20-20zm0 24c-2.207031 0-4-1.789063-4-4 0-2.207031 1.792969-4 4-4 2.210937 0 4 1.792969 4 4 0 2.210937-1.789063 4-4 4zm0 0"/><path d="m52.011719 72.011719c-11.042969 0-20 8.957031-20 20 0 11.046875 8.957031 20 20 20 11.046875 0 20-8.953125 20-20 0-11.042969-8.953125-20-20-20zm0 24c-2.207031 0-4-1.789063-4-4 0-2.207031 1.792969-4 4-4 2.210937 0 4 1.792969 4 4 0 2.210937-1.789063 4-4 4zm0 0"/><path d="m200.011719 232.011719c-4.417969 0-8 3.582031-8 8v8c0 4.417969 3.582031 8 8 8s8-3.582031 8-8v-8c0-4.417969-3.582031-8-8-8zm0 0"/><path d="m232.011719 232.011719c-4.417969 0-8 3.582031-8 8v8c0 4.417969 3.582031 8 8 8s8-3.582031 8-8v-8c0-4.417969-3.582031-8-8-8zm0 0"/><path d="m264.011719 232.011719c-4.417969 0-8 3.582031-8 8v8c0 4.417969 3.582031 8 8 8s8-3.582031 8-8v-8c0-4.417969-3.582031-8-8-8zm0 0"/></svg>