<svg height="480pt" viewBox="0 -63 480 479" width="480pt" xmlns="http://www.w3.org/2000/svg"><path d="m440 .5h-400c-22.082031.027344-39.9726562 17.917969-40 40v272c.0273438 22.082031 17.917969 39.972656 40 40h400c22.082031-.027344 39.972656-17.917969 40-40v-272c-.027344-22.082031-17.917969-39.972656-40-40zm24 312c0 13.253906-10.746094 24-24 24h-400c-13.253906 0-24-10.746094-24-24v-232h448zm-448-248v-24c0-13.253906 10.746094-24 24-24h400c13.253906 0 24 10.746094 24 24v24zm0 0"/><path d="m144 32.5h-104c-4.417969 0-8 3.582031-8 8s3.582031 8 8 8h104c4.417969 0 8-3.582031 8-8s-3.582031-8-8-8zm0 0"/><path d="m200 32.5h-24c-4.417969 0-8 3.582031-8 8s3.582031 8 8 8h24c4.417969 0 8-3.582031 8-8s-3.582031-8-8-8zm0 0"/><path d="m440 32.5h-24c-4.417969 0-8 3.582031-8 8s3.582031 8 8 8h24c4.417969 0 8-3.582031 8-8s-3.582031-8-8-8zm0 0"/><path d="m368 96.5h-256v160h256zm-16 144h-224v-128h224zm0 0"/><path d="m204.121094 223.5c2.542968 1.410156 5.652344 1.328125 8.117187-.214844l64-40c2.355469-1.460937 3.789063-4.03125 3.789063-6.800781s-1.433594-5.339844-3.789063-6.800781l-64-40c-2.46875-1.542969-5.585937-1.621094-8.128906-.203125-2.546875 1.414062-4.121094 4.105469-4.109375 7.019531v80c0 2.910156 1.578125 5.589844 4.121094 7zm11.878906-72.558594 40.902344 25.558594-40.902344 25.601562zm0 0"/><path d="m48 320.5h384c4.417969 0 8-3.582031 8-8v-32c0-4.417969-3.582031-8-8-8h-384c-4.417969 0-8 3.582031-8 8v32c0 4.417969 3.582031 8 8 8zm376-32v16h-248v-16zm-264 0v16h-16v-16zm-104 0h72v16h-72zm0 0"/></svg>