<svg height="480pt" viewBox="0 0 480 480" width="480pt" xmlns="http://www.w3.org/2000/svg"><path d="m472 0h-464c-4.417969 0-8 3.582031-8 8v464c0 4.417969 3.582031 8 8 8h464c4.417969 0 8-3.582031 8-8v-464c0-4.417969-3.582031-8-8-8zm-159.625 274.398438 40.992188 129.824218-108.800782-74.824218c-2.726562-1.871094-6.328125-1.871094-9.054687 0l-108.800781 74.824218 40.914062-129.824218c1.082031-3.429688-.257812-7.160157-3.273438-9.117188l-125.246093-81.28125h145.597656c3.410156 0 6.445313-2.160156 7.5625-5.382812l47.453125-137.320313 44.050781 137.152344c1.0625 3.308593 4.140625 5.550781 7.613281 5.550781h146.21875l-122.042968 81.34375c-2.953125 1.976562-4.25 5.664062-3.183594 9.054688zm-15.160156-106.398438-48.742188-151.785156c92.722656 3.628906 173.644532 63.957031 203.589844 151.785156zm-118.214844 0h-151.0625c29.933594-87.804688 110.824219-148.128906 203.519531-151.785156zm-157.664062 23.542969 129.199218 83.855469-45.277344 143.410156c-70.15625-52.714844-102.980468-141.605469-83.921874-227.265625zm218.664062 154.167969 120.59375 82.90625c-73.476562 47.175781-167.710938 47.175781-241.1875 0zm134.742188 73.097656-45.300782-143.488282 128.742188-85.832031c20.066406 86.21875-12.660156 176.15625-83.441406 229.320313zm89.257812-402.808594v137.984375c-24.511719-63.375-74.609375-113.472656-137.984375-137.984375zm-310.015625 0c-63.375 24.511719-113.472656 74.609375-137.984375 137.984375v-137.984375zm-137.984375 448v-137.984375c24.511719 63.375 74.609375 113.472656 137.984375 137.984375zm448 0h-137.984375c63.375-24.511719 113.472656-74.609375 137.984375-137.984375zm0 0"/><path d="m296 208h-112c-4.417969 0-8 3.582031-8 8s3.582031 8 8 8h112c4.417969 0 8-3.582031 8-8s-3.582031-8-8-8zm0 0"/><path d="m296 240h-112c-4.417969 0-8 3.582031-8 8s3.582031 8 8 8h112c4.417969 0 8-3.582031 8-8s-3.582031-8-8-8zm0 0"/><path d="m264 272h-48c-4.417969 0-8 3.582031-8 8s3.582031 8 8 8h48c4.417969 0 8-3.582031 8-8s-3.582031-8-8-8zm0 0"/><path d="m40 48h16c4.417969 0 8-3.582031 8-8s-3.582031-8-8-8h-16c-4.417969 0-8 3.582031-8 8s3.582031 8 8 8zm0 0"/><path d="m424 48h16c4.417969 0 8-3.582031 8-8s-3.582031-8-8-8h-16c-4.417969 0-8 3.582031-8 8s3.582031 8 8 8zm0 0"/><path d="m56 432h-16c-4.417969 0-8 3.582031-8 8s3.582031 8 8 8h16c4.417969 0 8-3.582031 8-8s-3.582031-8-8-8zm0 0"/><path d="m424 448h16c4.417969 0 8-3.582031 8-8s-3.582031-8-8-8h-16c-4.417969 0-8 3.582031-8 8s3.582031 8 8 8zm0 0"/></svg>